<svg xmlns="http://www.w3.org/2000/svg" viewBox="0 0 1330 1330" width="24" height="24">
  <g transform="scale(1,-1) translate(0,-1040)">
    <path d="M710 -85V835Q710 847 703.0 854.5Q696 862 681 862H649Q636 862 628.5 854.0Q621 846 621 835V-85Q621 -98 629.0 -105.0Q637 -112 650 -112H682Q695 -112 702.5 -105.0Q710 -98 710 -85ZM1124 420H205Q193 420 185.5 413.0Q178 406 178 391V357Q178 344 186.0 336.5Q194 329 205 329H1124Q1137 329 1144.0 337.0Q1151 345 1151 358V392Q1151 405 1144.0 412.5Q1137 420 1124 420Z" fill="currentColor"/>
  </g>
</svg>
