<svg xmlns="http://www.w3.org/2000/svg" viewBox="0 0 1330 1330" width="24" height="24">
  <g transform="scale(1,-1) translate(0,-1040)">
    <path d="M256 331H1188Q1204 331 1212.0 339.0Q1220 347 1220 362V389Q1220 402 1211.5 409.5Q1203 417 1188 417H256L540 701Q550 711 550.0 721.0Q550 731 538 743L521 760Q509 772 499.0 772.0Q489 772 477 760L130 412Q112 394 111.5 374.5Q111 355 131 335L477 -11Q489 -23 498.5 -23.5Q508 -24 521 -11L540 8Q551 19 551.0 27.5Q551 36 539 48Z" fill="currentColor"/>
  </g>
</svg>
