<svg xmlns="http://www.w3.org/2000/svg" viewBox="0 0 1330 1330" width="24" height="24">
  <g transform="scale(1,-1) translate(0,-1040)">
    <path d="M1019 -80Q1070 -52 1093 1Q1104 28 1103.5 66.0Q1103 104 1094 192L1052 610Q1045 681 1039.0 714.0Q1033 747 1020 769Q994 811 949 833Q926 844 894.0 846.5Q862 849 788 849H542Q468 849 436.0 846.5Q404 844 381 833Q336 811 310 769Q297 747 291.0 714.0Q285 681 278 610L236 192Q227 104 226.5 66.0Q226 28 238 1Q259 -52 311 -80Q336 -94 374.0 -97.0Q412 -100 501 -100H829Q918 -100 956.0 -97.0Q994 -94 1019 -80ZM460 641V686Q460 697 466.5 704.0Q473 711 485 711H500Q513 711 519.5 704.5Q526 698 526 686V641Q526 604 544.5 572.0Q563 540 595.0 521.5Q627 503 665 503Q703 503 735.0 521.5Q767 540 785.5 572.0Q804 604 804 641V686Q804 698 810.5 704.5Q817 711 830 711H844Q857 711 863.5 704.5Q870 698 870 686V641Q870 585 842.5 538.0Q815 491 768.0 463.5Q721 436 665 436Q609 436 562.0 463.5Q515 491 487.5 538.0Q460 585 460 641Z" fill="currentColor"/>
  </g>
</svg>
