<svg xmlns="http://www.w3.org/2000/svg" viewBox="0 0 1330 1330" width="24" height="24">
  <g transform="scale(1,-1) translate(0,-1040)">
    <path d="M741 80 1086 425Q1119 457 1119.0 502.5Q1119 548 1086 580L851 817Q830 838 801.5 845.0Q773 852 745.0 845.0Q717 838 696 817L245 366Q224 345 217.0 317.0Q210 289 217.0 261.0Q224 233 245 212L377 80Q392 65 412.0 56.5Q432 48 454 48H664Q686 48 706.0 56.5Q726 65 741 80ZM1105 -92V-59Q1105 -48 1097.0 -40.5Q1089 -33 1078 -33H238Q226 -33 218.5 -40.5Q211 -48 211 -59V-92Q211 -103 218.5 -110.5Q226 -118 238 -118H1078Q1089 -118 1097.0 -110.5Q1105 -103 1105 -92ZM430 148 323 255Q309 269 309.0 289.0Q309 309 323 323L427 426Q436 435 444 426L697 173Q706 165 697 156L688 148Q671 134 654 134H464Q444 134 430 148ZM756 234 504 486Q496 494 504 503L739 739Q753 753 773.5 753.0Q794 753 807 739L1010 536Q1024 523 1024.0 503.0Q1024 483 1010 469L773 234Q769 230 764.5 230.0Q760 230 756 234Z" fill="currentColor"/>
  </g>
</svg>
