<svg xmlns="http://www.w3.org/2000/svg" viewBox="0 0 1330 1330" width="24" height="24">
  <g transform="scale(1,-1) translate(0,-1040)">
    <path d="M1164 347Q1164 472 1106.5 580.5Q1049 689 948 758Q938 765 925.5 763.5Q913 762 908 753L894 731Q886 718 887.5 707.0Q889 696 901 687Q985 628 1032.0 538.5Q1079 449 1079 347Q1079 235 1023.5 140.0Q968 45 873.0 -10.5Q778 -66 666 -66Q554 -66 459.0 -10.5Q364 45 308.5 140.0Q253 235 253 347Q253 444 295.5 531.0Q338 618 416 676Q429 686 433.0 697.0Q437 708 429 721L413 746Q407 756 396.0 757.5Q385 759 375 752Q274 678 220.5 573.5Q167 469 167 347Q167 212 234.0 97.5Q301 -17 415.5 -84.0Q530 -151 666 -151Q801 -151 915.5 -84.0Q1030 -17 1097.0 97.5Q1164 212 1164 347ZM709 312V851Q709 863 702.0 870.5Q695 878 680 878H652Q639 878 631.5 870.0Q624 862 624 851V312Q624 299 632.0 292.0Q640 285 653 285H681Q694 285 701.5 292.0Q709 299 709 312Z" fill="currentColor"/>
  </g>
</svg>
