<svg xmlns="http://www.w3.org/2000/svg" viewBox="0 0 1330 1330" width="24" height="24">
  <g transform="scale(1,-1) translate(0,-1040)">
    <path d="M1164 374Q1164 510 1097.0 624.5Q1030 739 915.0 806.0Q800 873 665 873Q530 873 415.0 806.0Q300 739 233.0 624.5Q166 510 166 374Q166 239 233.0 124.5Q300 10 415.0 -57.0Q530 -124 665 -124Q800 -124 915.0 -57.0Q1030 10 1097.0 124.5Q1164 239 1164 374ZM938 -30Q969 -13 994.0 12.0Q1019 37 1035 68Q1037 74 1034 78Q959 187 864.0 247.5Q769 308 665 308Q561 308 466.0 247.5Q371 187 296 78Q295 75 294 71Q295 70 295 68Q328 4 392 -30Q425 -47 471.5 -50.5Q518 -54 627 -54H703Q812 -54 858.5 -50.5Q905 -47 938 -30ZM261 374Q261 484 315.5 576.5Q370 669 462.5 723.5Q555 778 665 778Q775 778 867.5 723.5Q960 669 1014.5 576.5Q1069 484 1069 374Q1069 264 1014.5 171.5Q960 79 867.5 25.0Q775 -29 665 -29Q555 -29 462.5 25.0Q370 79 315.5 171.5Q261 264 261 374ZM822 515Q822 558 801.0 594.0Q780 630 744.0 651.0Q708 672 665 672Q622 672 586.0 651.0Q550 630 529.0 594.0Q508 558 508 515Q508 473 529.0 436.5Q550 400 586.0 379.0Q622 358 665 358Q708 358 744.0 379.0Q780 400 801.0 436.5Q822 473 822 515Z" fill="currentColor"/>
  </g>
</svg>
