<svg xmlns="http://www.w3.org/2000/svg" viewBox="0 0 1330 1330" width="24" height="24">
  <g transform="scale(1,-1) translate(0,-1040)">
    <path d="M288 490V748Q288 750 289.5 751.5Q291 753 293 753H551Q562 753 570.0 760.5Q578 768 578 779V816Q578 827 570.0 835.0Q562 843 551 843H258Q229 843 213.5 827.5Q198 812 198 783V490Q198 479 206.0 471.0Q214 463 225 463H262Q273 463 280.5 471.0Q288 479 288 490ZM760 375Q760 415 732.0 442.5Q704 470 665 470Q625 470 597.5 442.5Q570 415 570 375Q570 336 597.5 308.0Q625 280 665 280Q704 280 732.0 308.0Q760 336 760 375ZM1133 -32V261Q1133 272 1125.0 280.0Q1117 288 1106 288H1069Q1058 288 1050.0 280.0Q1042 272 1042 261V3Q1042 -2 1038 -2H779Q769 -2 761.0 -10.0Q753 -18 753 -28V-66Q753 -77 761.0 -84.5Q769 -92 779 -92H1073Q1102 -92 1117.5 -76.5Q1133 -61 1133 -32Z" fill="currentColor"/>
  </g>
</svg>
