<svg xmlns="http://www.w3.org/2000/svg" viewBox="0 0 1330 1330" width="24" height="24">
  <g transform="scale(1,-1) translate(0,-1040)">
    <path d="M692 801 687 797 676 786Q664 774 653 786Q646 794 637 801Q595 835 543.5 854.0Q492 873 436 873Q350 873 277.5 831.0Q205 789 162.5 717.0Q120 645 120 559Q120 469 167 394Q223 299 350.5 170.0Q478 41 608 -74Q621 -86 631.0 -93.5Q641 -101 649 -103Q666 -108 682 -103Q689 -101 699.5 -93.0Q710 -85 723 -73Q847 38 970.0 161.0Q1093 284 1155 381Q1209 460 1209 559Q1209 645 1166.5 717.0Q1124 789 1052.0 831.0Q980 873 894 873Q838 873 786.0 854.0Q734 835 692 801ZM1123 559Q1123 488 1084 429Q1037 357 952.0 267.5Q867 178 803 117Q742 59 680 4Q670 -5 665.0 -5.0Q660 -5 650 4Q583 64 518 126Q303 331 240 440Q220 473 213.5 500.0Q207 527 207 559Q207 621 237.5 673.5Q268 726 321.0 756.5Q374 787 436 787Q484 787 527.0 768.0Q570 749 602 715Q615 701 625.0 691.5Q635 682 643 679Q665 670 687 679Q695 683 705.0 692.0Q715 701 728 715Q759 749 802.5 768.0Q846 787 894 787Q956 787 1009.0 756.5Q1062 726 1092.5 673.5Q1123 621 1123 559Z" fill="currentColor"/>
  </g>
</svg>
