<svg xmlns="http://www.w3.org/2000/svg" viewBox="0 0 1330 1330" width="24" height="24">
  <g transform="scale(1,-1) translate(0,-1040)">
    <path d="M1072 -107Q1124 -78 1151 -28Q1166 1 1169.5 42.0Q1173 83 1173 179V524Q1173 620 1169.5 661.0Q1166 702 1151 730Q1123 783 1072 809Q1043 824 1002.0 827.5Q961 831 865 831H688Q592 831 551.0 827.5Q510 824 481 809Q430 783 402 730Q387 702 383.5 664.0Q380 626 380 546V519Q380 506 388.0 499.0Q396 492 409 492H438Q451 492 458.5 499.0Q466 506 466 519V589Q466 629 468.0 650.5Q470 672 478 688Q495 718 524 733Q541 742 564.0 744.0Q587 746 643 746H910Q966 746 989.0 744.0Q1012 742 1029 733Q1057 719 1075 688Q1083 672 1085.0 648.0Q1087 624 1087 569V133Q1087 78 1085.0 54.0Q1083 30 1075 14Q1057 -17 1029 -31Q1012 -40 989.0 -42.0Q966 -44 910 -44H643Q587 -44 564.0 -42.0Q541 -40 524 -31Q495 -16 478 14Q470 30 468.0 51.5Q466 73 466 113V184Q466 196 459.0 203.5Q452 211 437 211H408Q395 211 387.5 203.0Q380 195 380 184V159Q380 78 383.5 39.5Q387 1 402 -28Q429 -78 481 -107Q510 -122 551.0 -125.5Q592 -129 690 -129H865Q961 -129 1002.0 -125.5Q1043 -122 1072 -107ZM911 383 703 591Q695 599 684.5 600.5Q674 602 664 592L643 571Q633 561 633.5 551.0Q634 541 641 533L779 394H185Q174 394 166.0 386.0Q158 378 158 367V335Q158 324 166.0 316.5Q174 309 185 309H780L644 172Q636 164 634.5 153.5Q633 143 643 133L660 115Q672 102 684.0 102.5Q696 103 704 111L910 318Q928 335 927.5 351.5Q927 368 911 383Z" fill="currentColor"/>
  </g>
</svg>
