<svg xmlns="http://www.w3.org/2000/svg" viewBox="0 0 1330 1330" width="24" height="24">
  <g transform="scale(1,-1) translate(0,-1040)">
    <path d="M291 125Q221 183 179.5 262.0Q138 341 138 431Q138 559 213.5 658.0Q289 757 410.5 811.0Q532 865 665 865Q806 865 927.0 808.5Q1048 752 1119.5 652.5Q1191 553 1191 431Q1191 304 1133.5 218.0Q1076 132 982 74Q926 40 880.0 22.5Q834 5 756 -18L731 -25Q682 -40 539 -81L431 -112Q426 -113 422.0 -109.0Q418 -105 420 -100L454 14Q456 22 453.0 28.5Q450 35 442 38Q355 71 291 125Z" fill="currentColor"/>
  </g>
</svg>
