<svg xmlns="http://www.w3.org/2000/svg" viewBox="0 0 1330 1330" width="24" height="24">
  <g transform="scale(1,-1) translate(0,-1040)">
    <path d="M665 810Q636 810 615.0 789.0Q594 768 594 739Q594 710 615.0 689.0Q636 668 665 668Q694 668 715.0 689.0Q736 710 736 739Q736 768 715.0 789.0Q694 810 665 810ZM665 82Q636 82 615.0 61.5Q594 41 594 11Q594 -18 615.0 -38.5Q636 -59 665 -59Q694 -59 715.0 -38.5Q736 -18 736 11Q736 41 715.0 61.5Q694 82 665 82ZM665 446Q636 446 615.0 425.0Q594 404 594 375Q594 346 615.0 325.0Q636 304 665 304Q694 304 715.0 325.0Q736 346 736 375Q736 404 715.0 425.0Q694 446 665 446Z" fill="currentColor"/>
  </g>
</svg>
