<svg xmlns="http://www.w3.org/2000/svg" viewBox="0 0 1330 1330" width="24" height="24">
  <g transform="scale(1,-1) translate(0,-1040)">
    <path d="M458 186Q371 273 301.0 381.5Q231 490 193 603Q173 661 185.5 724.5Q198 788 250 823Q296 855 325 869Q352 883 379.5 873.0Q407 863 422 837L525 659Q535 641 534.0 621.5Q533 602 524 586L489 520Q476 496 477.0 469.0Q478 442 492 419Q537 348 579 306Q624 261 692 219Q714 205 741.5 204.0Q769 203 793 216L859 252Q875 260 895.0 261.0Q915 262 932 252L1110 149Q1137 133 1145.5 105.5Q1154 78 1141 52Q1127 21 1096 -23Q1060 -74 997.0 -86.5Q934 -99 876 -80Q762 -42 654.0 28.0Q546 98 458 186Z" fill="currentColor"/>
  </g>
</svg>
