<svg xmlns="http://www.w3.org/2000/svg" viewBox="0 0 1330 1330" width="24" height="24">
  <g transform="scale(1,-1) translate(0,-1040)">
    <path d="M521 -48 980 218Q1046 256 1073.0 276.0Q1100 296 1112 323Q1123 348 1123.0 376.0Q1123 404 1112 429Q1100 455 1073.0 475.5Q1046 496 980 533L521 799Q459 835 426.0 848.5Q393 862 365 859Q338 857 314.0 843.5Q290 830 273 807Q256 785 252.0 751.5Q248 718 248 642V111Q248 33 251.5 0.0Q255 -33 272 -57Q289 -79 313.5 -93.0Q338 -107 364 -109Q393 -112 425.5 -98.5Q458 -85 521 -48ZM346 -4Q341 3 339.5 26.5Q338 50 338 111V642Q338 701 339.5 723.0Q341 745 345 752Q350 759 357.5 764.0Q365 769 374 770Q381 771 403.0 760.0Q425 749 475 721L936 455Q983 428 1002.5 414.5Q1022 401 1027 393Q1037 377 1029 359Q1025 351 1005.5 337.5Q986 324 936 296L475 30Q423 0 403.0 -10.0Q383 -20 374 -19Q355 -17 346 -4Z" fill="currentColor"/>
  </g>
</svg>
