<svg xmlns="http://www.w3.org/2000/svg" viewBox="0 0 1330 1330" width="24" height="24">
  <g transform="scale(1,-1) translate(0,-1040)">
    <path d="M785 139Q805 151 813.0 150.5Q821 150 835 136L1086 -115Q1097 -126 1107.5 -126.5Q1118 -127 1130 -115L1147 -98Q1159 -86 1159.0 -76.5Q1159 -67 1147 -55L893 200Q881 212 881.5 219.5Q882 227 895 246Q929 295 947.5 353.5Q966 412 966 475Q966 584 912.0 676.5Q858 769 765.5 823.0Q673 877 564 877Q455 877 362.5 823.0Q270 769 216.0 676.5Q162 584 162 475Q162 366 216.0 273.5Q270 181 362.5 127.0Q455 73 564 73Q624 73 680.5 90.0Q737 107 785 139ZM247 475Q247 561 289.5 634.0Q332 707 405.0 749.5Q478 792 564 792Q650 792 722.5 749.5Q795 707 837.5 634.0Q880 561 880 475Q880 389 837.5 316.0Q795 243 722.5 200.5Q650 158 564 158Q478 158 405.0 200.5Q332 243 289.5 316.0Q247 389 247 475Z" fill="currentColor"/>
  </g>
</svg>
