<svg xmlns="http://www.w3.org/2000/svg" viewBox="0 0 1330 1330" width="24" height="24">
  <g transform="scale(1,-1) translate(0,-1040)">
    <path d="M1072 -69Q1120 -46 1145 3Q1157 28 1160.0 62.5Q1163 97 1163 178V572Q1163 654 1160.0 688.5Q1157 723 1145 748Q1121 795 1072 820Q1048 832 1013.5 835.0Q979 838 897 838H432Q351 838 316.0 835.0Q281 832 257 820Q209 796 184 748Q172 723 169.0 688.5Q166 654 166 572V178Q166 97 169.0 62.5Q172 28 184 3Q210 -47 257 -69Q281 -82 316.0 -85.0Q351 -88 432 -88H897Q979 -88 1013.5 -85.0Q1048 -82 1072 -69ZM302 15Q279 28 269 49Q263 60 262.0 76.0Q261 92 261 129V491Q261 528 262.5 544.0Q264 560 269 571Q280 593 302 604Q313 609 329.0 610.5Q345 612 382 612H946Q984 612 999.5 611.0Q1015 610 1026 604Q1047 594 1060 571Q1065 560 1066.5 544.0Q1068 528 1068 491V129Q1068 92 1067.0 76.0Q1066 60 1060 49Q1048 27 1026 15Q1015 9 999.5 8.0Q984 7 946 7H382Q345 7 329.0 8.5Q313 10 302 15ZM500 139H543Q550 139 554.0 143.0Q558 147 558 154V464Q558 471 554.0 475.0Q550 479 543 479H508Q497 479 489 475L421 440Q410 434 410 422V378Q410 369 415.0 366.0Q420 363 428 367L485 397V154Q485 147 489.0 143.0Q493 139 500 139ZM905 381Q905 427 875.0 455.5Q845 484 792 484Q752 484 724.5 467.0Q697 450 682 423Q679 417 680.0 412.0Q681 407 687 403L719 381Q731 372 739 386Q759 417 790 417Q809 417 820.0 406.0Q831 395 831 377Q831 362 823.0 347.5Q815 333 795 312L683 196Q676 188 676 177V153Q676 146 680.0 142.0Q684 138 691 138H897Q904 138 908.0 142.0Q912 146 912 153V191Q912 198 908.0 202.0Q904 206 897 206H787L853 276Q879 303 892.0 328.0Q905 353 905 381Z" fill="currentColor"/>
  </g>
</svg>
