<svg xmlns="http://www.w3.org/2000/svg" viewBox="0 0 1330 1330" width="24" height="24">
  <g transform="scale(1,-1) translate(0,-1040)">
    <path d="M1072 -69Q1120 -46 1145 3Q1157 28 1160.0 62.5Q1163 97 1163 178V572Q1163 654 1160.0 688.5Q1157 723 1145 748Q1121 795 1072 820Q1048 832 1013.5 835.0Q979 838 897 838H432Q351 838 316.0 835.0Q281 832 257 820Q209 796 184 748Q172 723 169.0 688.5Q166 654 166 572V178Q166 97 169.0 62.5Q172 28 184 3Q210 -47 257 -69Q281 -82 316.0 -85.0Q351 -88 432 -88H897Q979 -88 1013.5 -85.0Q1048 -82 1072 -69ZM302 15Q279 28 269 49Q263 60 262.0 76.0Q261 92 261 129V491Q261 528 262.5 544.0Q264 560 269 571Q280 593 302 604Q313 609 329.0 610.5Q345 612 382 612H946Q984 612 999.5 611.0Q1015 610 1026 604Q1047 594 1060 571Q1065 560 1066.5 544.0Q1068 528 1068 491V129Q1068 92 1067.0 76.0Q1066 60 1060 49Q1048 27 1026 15Q1015 9 999.5 8.0Q984 7 946 7H382Q345 7 329.0 8.5Q313 10 302 15ZM500 139H543Q550 139 554.0 143.0Q558 147 558 154V464Q558 471 554.0 475.0Q550 479 543 479H508Q497 479 489 475L421 440Q410 434 410 422V378Q410 369 415.0 366.0Q420 363 428 367L485 397V154Q485 147 489.0 143.0Q493 139 500 139ZM789 361 788 362 847 461Q851 469 848.5 474.0Q846 479 837 479H784Q771 479 766 469L705 359Q683 320 675.0 299.5Q667 279 667 250Q667 199 702.5 166.0Q738 133 793 133Q848 133 883.5 166.0Q919 199 919 253Q919 303 888.5 333.5Q858 364 814 364Q801 364 789 361ZM741 250Q741 272 756.5 285.5Q772 299 796 299Q817 299 831.0 285.5Q845 272 845 250Q845 228 830.5 213.5Q816 199 794 199Q771 199 756.0 213.5Q741 228 741 250Z" fill="currentColor"/>
  </g>
</svg>
