<svg xmlns="http://www.w3.org/2000/svg" viewBox="0 0 1330 1330" width="24" height="24">
  <g transform="scale(1,-1) translate(0,-1040)">
    <path d="M1072 -69Q1120 -46 1145 3Q1157 28 1160.0 62.5Q1163 97 1163 178V572Q1163 654 1160.0 688.5Q1157 723 1145 748Q1121 795 1072 820Q1048 832 1013.5 835.0Q979 838 897 838H432Q351 838 316.0 835.0Q281 832 257 820Q209 796 184 748Q172 723 169.0 688.5Q166 654 166 572V178Q166 97 169.0 62.5Q172 28 184 3Q210 -47 257 -69Q281 -82 316.0 -85.0Q351 -88 432 -88H897Q979 -88 1013.5 -85.0Q1048 -82 1072 -69ZM302 15Q279 28 269 49Q263 60 262.0 76.0Q261 92 261 129V491Q261 528 262.5 544.0Q264 560 269 571Q280 593 302 604Q313 609 329.0 610.5Q345 612 382 612H946Q984 612 999.5 611.0Q1015 610 1026 604Q1047 594 1060 571Q1065 560 1066.5 544.0Q1068 528 1068 491V129Q1068 92 1067.0 76.0Q1066 60 1060 49Q1048 27 1026 15Q1015 9 999.5 8.0Q984 7 946 7H382Q345 7 329.0 8.5Q313 10 302 15ZM918 309Q918 395 885.5 439.5Q853 484 791 484Q730 484 697.0 439.5Q664 395 664 309Q664 223 697.0 178.0Q730 133 791 133Q853 133 885.5 177.5Q918 222 918 309ZM739 309Q739 362 752.5 389.0Q766 416 791 416Q817 416 830.5 389.0Q844 362 844 309Q844 256 830.5 228.5Q817 201 791 201Q766 201 752.5 228.5Q739 256 739 309ZM510 139H553Q560 139 564.0 143.0Q568 147 568 154V464Q568 471 564.0 475.0Q560 479 553 479H518Q507 479 499 475L431 440Q420 434 420 422V378Q420 369 425.0 366.0Q430 363 438 367L495 397V154Q495 147 499.0 143.0Q503 139 510 139Z" fill="currentColor"/>
  </g>
</svg>
