<svg xmlns="http://www.w3.org/2000/svg" viewBox="0 0 1330 1330" width="24" height="24">
  <g transform="scale(1,-1) translate(0,-1040)">
    <path d="M1072 -69Q1120 -46 1145 3Q1157 28 1160.0 62.5Q1163 97 1163 178V572Q1163 654 1160.0 688.5Q1157 723 1145 748Q1121 795 1072 820Q1048 832 1013.5 835.0Q979 838 897 838H432Q351 838 316.0 835.0Q281 832 257 820Q209 796 184 748Q172 723 169.0 688.5Q166 654 166 572V178Q166 97 169.0 62.5Q172 28 184 3Q210 -47 257 -69Q281 -82 316.0 -85.0Q351 -88 432 -88H897Q979 -88 1013.5 -85.0Q1048 -82 1072 -69ZM302 15Q279 28 269 49Q263 60 262.0 76.0Q261 92 261 129V491Q261 528 262.5 544.0Q264 560 269 571Q280 593 302 604Q313 609 329.0 610.5Q345 612 382 612H946Q984 612 999.5 611.0Q1015 610 1026 604Q1047 594 1060 571Q1065 560 1066.5 544.0Q1068 528 1068 491V129Q1068 92 1067.0 76.0Q1066 60 1060 49Q1048 27 1026 15Q1015 9 999.5 8.0Q984 7 946 7H382Q345 7 329.0 8.5Q313 10 302 15ZM622 381Q622 427 592.0 455.5Q562 484 509 484Q469 484 441.5 467.0Q414 450 399 423Q396 417 397.0 412.0Q398 407 404 403L436 381Q448 372 456 386Q476 417 507 417Q526 417 537.0 406.0Q548 395 548 377Q548 362 540.0 347.5Q532 333 512 312L400 196Q393 188 393 177V153Q393 146 397.0 142.0Q401 138 408 138H614Q621 138 625.0 142.0Q629 146 629 153V191Q629 198 625.0 202.0Q621 206 614 206H504L570 276Q596 303 609.0 328.0Q622 353 622 381ZM780 349 787 413H907Q914 413 918.0 417.0Q922 421 922 428V464Q922 471 918.0 475.0Q914 479 907 479H732Q718 479 717 465L705 306Q703 293 716 288L753 271Q765 265 773 277Q789 296 815 296Q839 296 853.0 283.0Q867 270 867 247Q867 225 853.0 212.0Q839 199 815 199Q783 199 765 228Q756 242 744 233L710 211Q705 207 703.0 202.0Q701 197 704 190Q720 163 748.5 148.0Q777 133 814 133Q872 133 905.5 164.0Q939 195 939 249Q939 300 909.5 330.5Q880 361 830 361Q803 361 780 349Z" fill="currentColor"/>
  </g>
</svg>
