<svg xmlns="http://www.w3.org/2000/svg" viewBox="0 0 1330 1330" width="24" height="24">
  <g transform="scale(1,-1) translate(0,-1040)">
    <path d="M1072 -69Q1120 -46 1145 3Q1157 28 1160.0 62.5Q1163 97 1163 178V572Q1163 654 1160.0 688.5Q1157 723 1145 748Q1121 795 1072 820Q1048 832 1013.5 835.0Q979 838 897 838H432Q351 838 316.0 835.0Q281 832 257 820Q209 796 184 748Q172 723 169.0 688.5Q166 654 166 572V178Q166 97 169.0 62.5Q172 28 184 3Q210 -47 257 -69Q281 -82 316.0 -85.0Q351 -88 432 -88H897Q979 -88 1013.5 -85.0Q1048 -82 1072 -69ZM302 15Q279 28 269 49Q263 60 262.0 76.0Q261 92 261 129V491Q261 528 262.5 544.0Q264 560 269 571Q280 593 302 604Q313 609 329.0 610.5Q345 612 382 612H946Q984 612 999.5 611.0Q1015 610 1026 604Q1047 594 1060 571Q1065 560 1066.5 544.0Q1068 528 1068 491V129Q1068 92 1067.0 76.0Q1066 60 1060 49Q1048 27 1026 15Q1015 9 999.5 8.0Q984 7 946 7H382Q345 7 329.0 8.5Q313 10 302 15ZM685 349 757 412Q765 419 765 430V464Q765 471 761.0 475.0Q757 479 750 479H570Q563 479 559.0 475.0Q555 471 555 464V426Q555 419 559.0 415.0Q563 411 570 411H668L598 344Q588 334 597 323L619 294Q627 283 640 290Q649 294 661 294Q683 293 696.0 280.5Q709 268 709 246Q709 224 695.5 211.5Q682 199 660 199Q628 199 607 231Q603 238 598.0 239.0Q593 240 587 236L555 214Q550 210 548.0 205.0Q546 200 549 194Q566 166 594.0 149.5Q622 133 661 133Q714 133 747.5 164.5Q781 196 781 246Q781 276 768.0 299.5Q755 323 733.0 335.5Q711 348 685 347Z" fill="currentColor"/>
  </g>
</svg>
