<svg xmlns="http://www.w3.org/2000/svg" viewBox="0 0 1330 1330" width="24" height="24">
  <g transform="scale(1,-1) translate(0,-1040)">
    <path d="M1072 -69Q1120 -46 1145 3Q1157 28 1160.0 62.5Q1163 97 1163 178V572Q1163 654 1160.0 688.5Q1157 723 1145 748Q1121 795 1072 820Q1048 832 1013.5 835.0Q979 838 897 838H432Q351 838 316.0 835.0Q281 832 257 820Q209 796 184 748Q172 723 169.0 688.5Q166 654 166 572V178Q166 97 169.0 62.5Q172 28 184 3Q210 -47 257 -69Q281 -82 316.0 -85.0Q351 -88 432 -88H897Q979 -88 1013.5 -85.0Q1048 -82 1072 -69ZM302 15Q279 28 269 49Q263 60 262.0 76.0Q261 92 261 129V491Q261 528 262.5 544.0Q264 560 269 571Q280 593 302 604Q313 609 329.0 610.5Q345 612 382 612H946Q984 612 999.5 611.0Q1015 610 1026 604Q1047 594 1060 571Q1065 560 1066.5 544.0Q1068 528 1068 491V129Q1068 92 1067.0 76.0Q1066 60 1060 49Q1048 27 1026 15Q1015 9 999.5 8.0Q984 7 946 7H382Q345 7 329.0 8.5Q313 10 302 15ZM534 349 606 412Q614 419 614 430V464Q614 471 610.0 475.0Q606 479 599 479H419Q412 479 408.0 475.0Q404 471 404 464V426Q404 419 408.0 415.0Q412 411 419 411H517L447 344Q437 334 446 323L468 294Q472 289 477.5 288.0Q483 287 489 290Q498 294 510 294Q532 293 545.0 280.5Q558 268 558 246Q558 224 544.5 211.5Q531 199 509 199Q477 199 456 231Q448 245 436 236L404 214Q399 210 397.0 205.0Q395 200 398 194Q415 166 443.0 149.5Q471 133 510 133Q563 133 596.5 164.5Q630 196 630 246Q630 276 617.0 299.5Q604 323 582.0 335.5Q560 348 534 347ZM938 308Q938 394 905.5 439.0Q873 484 811 484Q750 484 717.0 439.5Q684 395 684 309Q684 223 717.0 178.0Q750 133 811 133Q873 133 905.5 177.5Q938 222 938 308ZM759 309Q759 362 772.5 389.0Q786 416 811 416Q837 416 850.5 389.0Q864 362 864 309Q864 256 850.5 228.5Q837 201 811 201Q786 201 772.5 228.5Q759 256 759 309Z" fill="currentColor"/>
  </g>
</svg>
