<svg xmlns="http://www.w3.org/2000/svg" viewBox="0 0 1330 1330" width="24" height="24">
  <g transform="scale(1,-1) translate(0,-1040)">
    <path d="M1072 -69Q1120 -46 1145 3Q1157 28 1160.0 62.5Q1163 97 1163 178V572Q1163 654 1160.0 688.5Q1157 723 1145 748Q1121 795 1072 820Q1048 832 1013.5 835.0Q979 838 897 838H432Q351 838 316.0 835.0Q281 832 257 820Q209 796 184 748Q172 723 169.0 688.5Q166 654 166 572V178Q166 97 169.0 62.5Q172 28 184 3Q210 -47 257 -69Q281 -82 316.0 -85.0Q351 -88 432 -88H897Q979 -88 1013.5 -85.0Q1048 -82 1072 -69ZM302 15Q279 28 269 49Q263 60 262.0 76.0Q261 92 261 129V491Q261 528 262.5 544.0Q264 560 269 571Q280 593 302 604Q313 609 329.0 610.5Q345 612 382 612H946Q984 612 999.5 611.0Q1015 610 1026 604Q1047 594 1060 571Q1065 560 1066.5 544.0Q1068 528 1068 491V129Q1068 92 1067.0 76.0Q1066 60 1060 49Q1048 27 1026 15Q1015 9 999.5 8.0Q984 7 946 7H382Q345 7 329.0 8.5Q313 10 302 15ZM563 349 635 412Q643 419 643 430V464Q643 471 639.0 475.0Q635 479 628 479H448Q441 479 437.0 475.0Q433 471 433 464V426Q433 419 437.0 415.0Q441 411 448 411H546L476 344Q466 334 475 323L497 294Q501 289 506.5 288.0Q512 287 518 290Q527 294 539 294Q561 293 574.0 280.5Q587 268 587 246Q587 224 573.5 211.5Q560 199 538 199Q506 199 485 231Q477 245 465 236L433 214Q428 210 426.0 205.0Q424 200 427 194Q444 166 472.0 149.5Q500 133 539 133Q592 133 625.5 164.5Q659 196 659 246Q659 276 646.0 299.5Q633 323 611.0 335.5Q589 348 563 347ZM820 139H863Q870 139 874.0 143.0Q878 147 878 154V464Q878 471 874.0 475.0Q870 479 863 479H828Q817 479 809 475L741 440Q730 434 730 422V378Q730 369 735.0 366.0Q740 363 748 367L805 397V154Q805 147 809.0 143.0Q813 139 820 139Z" fill="currentColor"/>
  </g>
</svg>
