<svg xmlns="http://www.w3.org/2000/svg" viewBox="0 0 1330 1330" width="24" height="24">
  <g transform="scale(1,-1) translate(0,-1040)">
    <path d="M1072 -69Q1120 -46 1145 3Q1157 28 1160.0 62.5Q1163 97 1163 178V572Q1163 654 1160.0 688.5Q1157 723 1145 748Q1121 795 1072 820Q1048 832 1013.5 835.0Q979 838 897 838H432Q351 838 316.0 835.0Q281 832 257 820Q209 796 184 748Q172 723 169.0 688.5Q166 654 166 572V178Q166 97 169.0 62.5Q172 28 184 3Q210 -47 257 -69Q281 -82 316.0 -85.0Q351 -88 432 -88H897Q979 -88 1013.5 -85.0Q1048 -82 1072 -69ZM302 15Q279 28 269 49Q263 60 262.0 76.0Q261 92 261 129V491Q261 528 262.5 544.0Q264 560 269 571Q280 593 302 604Q313 609 329.0 610.5Q345 612 382 612H946Q984 612 999.5 611.0Q1015 610 1026 604Q1047 594 1060 571Q1065 560 1066.5 544.0Q1068 528 1068 491V129Q1068 92 1067.0 76.0Q1066 60 1060 49Q1048 27 1026 15Q1015 9 999.5 8.0Q984 7 946 7H382Q345 7 329.0 8.5Q313 10 302 15ZM624 349 630 413H751Q758 413 762.0 417.0Q766 421 766 428V464Q766 471 762.0 475.0Q758 479 751 479H576Q562 479 561 465L549 306Q547 293 560 288L597 271Q609 265 617 277Q633 296 659 296Q683 296 697.0 283.0Q711 270 711 247Q711 225 697.0 212.0Q683 199 659 199Q627 199 609 228Q600 242 588 233L554 211Q549 207 547.0 202.0Q545 197 548 190Q564 163 592.5 148.0Q621 133 658 133Q716 133 749.5 164.0Q783 195 783 249Q783 300 753.5 330.5Q724 361 674 361Q647 361 624 349Z" fill="currentColor"/>
  </g>
</svg>
