<svg xmlns="http://www.w3.org/2000/svg" viewBox="0 0 1330 1330" width="24" height="24">
  <g transform="scale(1,-1) translate(0,-1040)">
    <path d="M1072 -69Q1120 -46 1145 3Q1157 28 1160.0 62.5Q1163 97 1163 178V572Q1163 654 1160.0 688.5Q1157 723 1145 748Q1121 795 1072 820Q1048 832 1013.5 835.0Q979 838 897 838H432Q351 838 316.0 835.0Q281 832 257 820Q209 796 184 748Q172 723 169.0 688.5Q166 654 166 572V178Q166 97 169.0 62.5Q172 28 184 3Q210 -47 257 -69Q281 -82 316.0 -85.0Q351 -88 432 -88H897Q979 -88 1013.5 -85.0Q1048 -82 1072 -69ZM302 15Q279 28 269 49Q263 60 262.0 76.0Q261 92 261 129V491Q261 528 262.5 544.0Q264 560 269 571Q280 593 302 604Q313 609 329.0 610.5Q345 612 382 612H946Q984 612 999.5 611.0Q1015 610 1026 604Q1047 594 1060 571Q1065 560 1066.5 544.0Q1068 528 1068 491V129Q1068 92 1067.0 76.0Q1066 60 1060 49Q1048 27 1026 15Q1015 9 999.5 8.0Q984 7 946 7H382Q345 7 329.0 8.5Q313 10 302 15ZM793 230Q793 261 774.5 284.0Q756 307 729 318V319Q751 328 766.0 347.5Q781 367 781 395Q781 434 748.5 459.0Q716 484 665 484Q614 484 581.5 459.0Q549 434 549 395Q549 368 564.0 348.0Q579 328 600 319V318Q574 307 555.5 284.0Q537 261 537 230Q537 187 572.5 159.5Q608 132 665 132Q722 132 757.5 159.5Q793 187 793 230ZM623 385Q623 400 634.5 409.5Q646 419 665 419Q684 419 695.5 409.5Q707 400 707 385Q707 369 695.5 359.5Q684 350 665 350Q646 350 634.5 359.5Q623 369 623 385ZM612 241Q612 261 626.5 273.0Q641 285 665 285Q689 285 703.5 273.0Q718 261 718 241Q718 222 703.5 210.0Q689 198 665 198Q641 198 626.5 210.0Q612 222 612 241Z" fill="currentColor"/>
  </g>
</svg>
