<svg xmlns="http://www.w3.org/2000/svg" viewBox="0 0 1330 1330" width="24" height="24">
  <g transform="scale(1,-1) translate(0,-1040)">
    <path d="M1072 -69Q1120 -46 1145 3Q1157 28 1160.0 62.5Q1163 97 1163 178V572Q1163 654 1160.0 688.5Q1157 723 1145 748Q1121 795 1072 820Q1048 832 1013.5 835.0Q979 838 897 838H432Q351 838 316.0 835.0Q281 832 257 820Q209 796 184 748Q172 723 169.0 688.5Q166 654 166 572V178Q166 97 169.0 62.5Q172 28 184 3Q210 -47 257 -69Q281 -82 316.0 -85.0Q351 -88 432 -88H897Q979 -88 1013.5 -85.0Q1048 -82 1072 -69ZM302 15Q279 28 269 49Q263 60 262.0 76.0Q261 92 261 129V491Q261 528 262.5 544.0Q264 560 269 571Q280 593 302 604Q313 609 329.0 610.5Q345 612 382 612H946Q984 612 999.5 611.0Q1015 610 1026 604Q1047 594 1060 571Q1065 560 1066.5 544.0Q1068 528 1068 491V129Q1068 92 1067.0 76.0Q1066 60 1060 49Q1048 27 1026 15Q1015 9 999.5 8.0Q984 7 946 7H382Q345 7 329.0 8.5Q313 10 302 15ZM537 364Q537 315 568.0 284.0Q599 253 642 253Q656 253 667 257L668 256L608 156Q604 148 606.5 143.0Q609 138 618 138H672Q685 138 690 148L751 258Q773 297 781.0 317.5Q789 338 789 367Q789 418 753.5 451.0Q718 484 663 484Q608 484 572.5 451.0Q537 418 537 364ZM611 367Q611 390 625.5 404.0Q640 418 662 418Q685 418 700.0 403.5Q715 389 715 367Q715 345 699.5 331.5Q684 318 660 318Q638 318 624.5 331.5Q611 345 611 367Z" fill="currentColor"/>
  </g>
</svg>
