<svg xmlns="http://www.w3.org/2000/svg" viewBox="0 0 1330 1330" width="24" height="24">
  <g transform="scale(1,-1) translate(0,-1040)">
    <path d="M809 17 785 202Q783 219 792.5 233.0Q802 247 819 252L943 282L955 285Q966 288 977.0 290.5Q988 293 997 297Q1027 308 1043 328Q1060 349 1065 380Q1068 395 1068 413L1070 435L1085 705Q1089 761 1088 780Q1084 820 1067 846Q1055 861 1047 867Q1024 888 984 895Q963 898 912 900H909Q818 903 663 903Q540 903 420 899H417Q366 897 345 894Q308 889 282 867Q268 855 262 845Q243 818 241 778Q240 751 243 703L262 431Q264 401 268 377Q273 346 289 328Q307 308 335 297Q352 291 386 282L506 252Q523 247 532.5 233.0Q542 219 540 202L515 17Q509 -27 527.5 -65.5Q546 -104 582.0 -127.5Q618 -151 662 -151Q706 -151 742.0 -127.5Q778 -104 796.5 -65.5Q815 -27 809 17ZM602 5 627 191Q634 241 605.0 283.0Q576 325 527 337L410 367Q377 376 363 381Q359 383 357.0 385.5Q355 388 354 394Q352 402 349 443L982 444Q981 416 978 394Q977 388 975.0 385.0Q973 382 969 381Q959 377 920 367L799 337Q749 325 720.0 283.0Q691 241 698 190L722 5Q725 -22 707.0 -42.5Q689 -63 662 -63Q635 -63 617.0 -42.5Q599 -22 602 5ZM329 774Q331 791 336.5 797.5Q342 804 359 807Q377 810 423 811Q541 815 663 815Q816 815 906 812Q952 811 971 808Q986 806 993.5 797.0Q1001 788 1000 770L997 708L986 532H343L331 707Q328 757 329 774Z" fill="currentColor"/>
  </g>
</svg>
