<svg xmlns="http://www.w3.org/2000/svg" viewBox="0 0 1330 1330" width="24" height="24">
  <g transform="scale(1,-1) translate(0,-1040)">
    <path d="M674 85Q674 134 650.0 175.5Q626 217 584.5 241.0Q543 265 494 265Q445 265 404.0 241.0Q363 217 338.5 175.5Q314 134 314 85Q314 36 338.5 -5.0Q363 -46 404.0 -70.5Q445 -95 494 -95Q543 -95 584.5 -70.5Q626 -46 650.0 -5.0Q674 36 674 85ZM400 85Q400 124 427.5 152.0Q455 180 494 180Q534 180 561.5 152.0Q589 124 589 85Q589 46 561.5 18.0Q534 -10 494 -10Q455 -10 427.5 18.0Q400 46 400 85ZM365 128H200Q189 128 180.5 121.0Q172 114 172 97V74Q172 57 180.0 50.0Q188 43 200 43H365ZM1158 74V97Q1158 114 1149.5 121.0Q1141 128 1130 128H632V42L1130 43Q1142 43 1150.0 50.0Q1158 57 1158 74ZM1158 654V677Q1158 694 1149.5 701.0Q1141 708 1130 708H965V623H1130Q1142 623 1150.0 630.0Q1158 637 1158 654ZM698 708H200Q189 708 180.5 701.0Q172 694 172 677V654Q172 637 180.0 630.0Q188 623 200 623H698ZM1015 665Q1015 714 991.0 755.5Q967 797 925.5 821.0Q884 845 835 845Q786 845 745.0 821.0Q704 797 679.5 755.5Q655 714 655 665Q655 616 679.5 575.0Q704 534 745.0 509.5Q786 485 835 485Q884 485 925.5 509.5Q967 534 991.0 575.0Q1015 616 1015 665ZM741 665Q741 704 768.5 732.0Q796 760 835 760Q875 760 902.5 732.0Q930 704 930 665Q930 626 902.5 598.0Q875 570 835 570Q796 570 768.5 598.0Q741 626 741 665Z" fill="currentColor"/>
  </g>
</svg>
