<svg xmlns="http://www.w3.org/2000/svg" viewBox="0 0 1330 1330" width="24" height="24">
  <g transform="scale(1,-1) translate(0,-1040)">
    <path d="M940 416V443Q940 462 933.0 470.0Q926 478 909 478H425Q408 478 401.0 470.0Q394 462 394 443V416Q394 397 401.0 389.5Q408 382 425 382H909Q926 382 933.0 389.5Q940 397 940 416ZM1073 -62Q1123 -36 1145 10Q1158 35 1161.0 70.0Q1164 105 1164 186V580Q1164 661 1161.0 695.5Q1158 730 1145 755Q1134 778 1115.0 797.0Q1096 816 1073 828Q1048 840 1013.5 843.0Q979 846 898 846H432Q351 846 316.5 843.0Q282 840 257 828Q234 816 215.0 797.0Q196 778 185 755Q172 730 169.0 695.5Q166 661 166 580V186Q166 105 169.0 70.0Q172 35 185 10Q207 -36 257 -62Q282 -74 316.5 -77.0Q351 -80 432 -80H898Q979 -80 1013.5 -77.0Q1048 -74 1073 -62ZM303 23Q281 34 270 56Q264 67 262.5 83.0Q261 99 261 136V498Q261 536 262.5 551.5Q264 567 270 578Q281 600 303 611Q314 617 330.0 618.5Q346 620 383 620H947Q985 620 1000.5 618.5Q1016 617 1027 611Q1049 600 1060 578Q1066 567 1067.5 551.5Q1069 536 1069 498V136Q1069 99 1067.5 83.0Q1066 67 1060 56Q1049 34 1027 23Q1016 17 1000.5 15.5Q985 14 947 14H383Q346 14 330.0 15.5Q314 17 303 23Z" fill="currentColor"/>
  </g>
</svg>
