<svg xmlns="http://www.w3.org/2000/svg" viewBox="0 0 1330 1330" width="24" height="24">
  <g transform="scale(1,-1) translate(0,-1040)">
    <path d="M1073 -62Q1123 -36 1145 10Q1158 35 1161.0 70.0Q1164 105 1164 186V580Q1164 661 1161.0 695.5Q1158 730 1145 755Q1134 778 1115.0 797.0Q1096 816 1073 828Q1048 840 1013.5 843.0Q979 846 898 846H432Q351 846 316.5 843.0Q282 840 257 828Q234 816 215.0 797.0Q196 778 185 755Q172 730 169.0 695.5Q166 661 166 580V186Q166 105 169.0 70.0Q172 35 185 10Q207 -36 257 -62Q282 -74 316.5 -77.0Q351 -80 432 -80H898Q979 -80 1013.5 -77.0Q1048 -74 1073 -62ZM303 23Q281 34 270 56Q264 67 262.5 83.0Q261 99 261 136V498Q261 536 262.5 551.5Q264 567 270 578Q281 600 303 611Q314 617 330.0 618.5Q346 620 383 620H947Q985 620 1000.5 618.5Q1016 617 1027 611Q1049 600 1060 578Q1066 567 1067.5 551.5Q1069 536 1069 498V136Q1069 99 1067.5 83.0Q1066 67 1060 56Q1049 34 1027 23Q1016 17 1000.5 15.5Q985 14 947 14H383Q346 14 330.0 15.5Q314 17 303 23ZM501 305V332Q501 351 494.0 359.0Q487 367 470 367H394Q377 367 370.0 359.0Q363 351 363 332V305Q363 286 370.0 278.5Q377 271 394 271H470Q487 271 494.0 278.5Q501 286 501 305ZM501 468V495Q501 514 494.0 522.0Q487 530 470 530H394Q377 530 370.0 522.0Q363 514 363 495V468Q363 449 370.0 441.5Q377 434 394 434H470Q487 434 494.0 441.5Q501 449 501 468ZM501 141V168Q501 187 494.0 195.0Q487 203 470 203H394Q377 203 370.0 195.0Q363 187 363 168V141Q363 122 370.0 114.5Q377 107 394 107H470Q487 107 494.0 114.5Q501 122 501 141ZM735 305V332Q735 351 728.0 359.0Q721 367 704 367H628Q611 367 604.0 359.0Q597 351 597 332V305Q597 286 604.0 278.5Q611 271 628 271H704Q721 271 728.0 278.5Q735 286 735 305ZM735 468V495Q735 514 728.0 522.0Q721 530 704 530H628Q611 530 604.0 522.0Q597 514 597 495V468Q597 449 604.0 441.5Q611 434 628 434H704Q721 434 728.0 441.5Q735 449 735 468ZM735 141V168Q735 187 728.0 195.0Q721 203 704 203H628Q611 203 604.0 195.0Q597 187 597 168V141Q597 122 604.0 114.5Q611 107 628 107H704Q721 107 728.0 114.5Q735 122 735 141ZM967 305V332Q967 351 960.0 359.0Q953 367 936 367H860Q843 367 836.0 359.0Q829 351 829 332V305Q829 286 836.0 278.5Q843 271 860 271H936Q953 271 960.0 278.5Q967 286 967 305ZM967 468V495Q967 514 960.0 522.0Q953 530 936 530H860Q843 530 836.0 522.0Q829 514 829 495V468Q829 449 836.0 441.5Q843 434 860 434H936Q953 434 960.0 441.5Q967 449 967 468Z" fill="currentColor"/>
  </g>
</svg>
