<svg xmlns="http://www.w3.org/2000/svg" viewBox="0 0 14.0 17.0" width="14.0dip" height="17.0dip"><path d="M8.969,14.706C8.714,15.013 8.47,15.306 8.247,15.582C7.851,16.073 7.62,16.287 7.344,16.384C7.134,16.459 6.868,16.459 6.658,16.384C6.381,16.287 6.144,16.073 5.748,15.582C5.527,15.309 5.286,15.019 5.034,14.715C3.197,12.506 0.727,9.535 0.727,6.439C0.727,2.974 3.536,0.165 7.001,0.165C10.466,0.165 13.275,2.974 13.275,6.439C13.275,9.531 10.806,12.498 8.969,14.706ZM7.001,8.865C8.376,8.865 9.491,7.75 9.491,6.375C9.491,5 8.376,3.886 7.001,3.886C5.626,3.886 4.511,5 4.511,6.375C4.511,7.75 5.626,8.865 7.001,8.865Z" fill="#ffffffff" fill-opacity="1" fill-rule="evenodd"/></svg>

