<svg xmlns="http://www.w3.org/2000/svg" viewBox="0 0 32.0 32.0" width="32.0" height="32.0">
  <path d="M14.598,7.282H21.886C22.523,7.282 22.841,7.282 23.102,7.322C24.616,7.552 25.792,8.719 26.033,10.23C26.075,10.491 26.077,10.813 26.082,11.457L26.083,11.559C26.094,12.984 26.105,14.41 26.105,15.835C26.105,16.84 26.104,17.496 26.061,17.997C26.021,18.477 25.951,18.67 25.893,18.779C25.802,18.952 25.731,19.14 25.731,19.336V20.774C25.731,20.859 25.731,20.901 25.75,20.927C25.767,20.95 25.794,20.965 25.822,20.968C25.854,20.971 25.889,20.951 25.958,20.909C26.525,20.574 26.987,20.093 27.291,19.518C27.686,18.771 27.686,17.792 27.686,15.835V11.292C27.686,10.746 27.686,10.473 27.665,10.245C27.445,7.841 25.546,5.942 23.142,5.722C22.915,5.701 22.643,5.701 22.099,5.701H21.886H14.598C12.568,5.701 11.553,5.701 10.778,6.082C10.096,6.417 9.541,6.951 9.194,7.609C9.162,7.669 9.207,7.739 9.275,7.739H10.653C10.942,7.739 11.216,7.628 11.475,7.501C11.608,7.436 11.83,7.365 12.342,7.325C12.87,7.283 13.558,7.282 14.598,7.282ZM6.843,12.963C6.882,12.497 6.948,12.336 6.986,12.264C7.152,11.95 7.424,11.683 7.773,11.511C7.87,11.463 8.062,11.396 8.56,11.357C9.078,11.316 9.756,11.315 10.8,11.315H18.088C19.132,11.315 19.81,11.316 20.327,11.357C20.826,11.396 21.017,11.463 21.115,11.511C21.464,11.683 21.735,11.95 21.901,12.264C21.939,12.336 22.005,12.497 22.045,12.963C22.086,13.452 22.088,14.097 22.088,15.106V19.649C22.088,20.658 22.086,21.303 22.045,21.792C22.005,22.258 21.939,22.419 21.901,22.491C21.735,22.805 21.464,23.072 21.115,23.243C21.017,23.291 20.826,23.358 20.327,23.398C19.81,23.438 19.132,23.44 18.088,23.44H10.8C9.756,23.44 9.078,23.438 8.56,23.398C8.062,23.358 7.87,23.291 7.773,23.243L7.066,24.681L7.773,23.243C7.424,23.072 7.152,22.805 6.986,22.491C6.948,22.419 6.882,22.258 6.843,21.792C6.802,21.303 6.8,20.658 6.8,19.649V15.106C6.8,14.097 6.802,13.452 6.843,12.963ZM5,15.106C5,13.149 5,12.17 5.395,11.423C5.743,10.765 6.297,10.231 6.979,9.896C7.755,9.515 8.77,9.515 10.8,9.515H18.088C20.118,9.515 21.133,9.515 21.909,9.896C22.591,10.231 23.145,10.765 23.493,11.423C23.888,12.17 23.888,13.149 23.888,15.106V19.649C23.888,21.606 23.888,22.584 23.493,23.332C23.145,23.989 22.591,24.524 21.909,24.859C21.133,25.24 20.118,25.24 18.088,25.24H10.8C8.77,25.24 7.755,25.24 6.979,24.859C6.297,24.524 5.743,23.989 5.395,23.332C5,22.584 5,21.606 5,19.649V15.106Z" fill="#000000" fill-opacity="0.8" fill-rule="evenodd"/>
</svg>