<svg xmlns="http://www.w3.org/2000/svg" viewBox="0 0 32.0 32.0" width="32.0" height="32.0">
  <path d="M16.001,11.125m-4.33,0a4.33,4.33 0,1 1,8.66 0a4.33,4.33 0,1 1,-8.66 0" fill="none" stroke="#000000" stroke-width="1.8" stroke-opacity="0.8"/>
  <path d="M25.008,19.804C24.482,19.379 24.039,19.229 23.151,18.927C20.913,18.167 18.506,17.753 15.998,17.753C13.493,17.753 11.088,18.166 8.852,18.924C7.963,19.226 7.519,19.377 6.992,19.803C6.529,20.177 6.02,20.887 5.814,21.446C5.581,22.081 5.581,22.691 5.581,23.912C5.581,24.864 5.581,25.34 5.766,25.703C5.929,26.023 6.189,26.283 6.509,26.446C6.872,26.632 7.348,26.632 8.301,26.632H23.7C24.652,26.632 25.128,26.632 25.492,26.446C25.812,26.283 26.072,26.023 26.235,25.703C26.42,25.34 26.42,24.864 26.42,23.912C26.42,22.693 26.42,22.084 26.187,21.45C25.981,20.89 25.472,20.179 25.008,19.804ZM23.899,21.478C23.605,21.211 23.313,21.094 22.729,20.86C20.611,20.013 18.263,19.541 15.792,19.541C13.515,19.541 11.344,19.941 9.36,20.667C8.751,20.89 8.447,21.001 8.14,21.269C7.896,21.481 7.646,21.838 7.531,22.14C7.385,22.52 7.385,22.908 7.385,23.684V24.194C7.385,24.418 7.385,24.53 7.428,24.615C7.467,24.69 7.528,24.752 7.603,24.79C7.689,24.834 7.801,24.834 8.025,24.834H23.979C24.203,24.834 24.315,24.834 24.401,24.79C24.476,24.752 24.537,24.69 24.576,24.615C24.619,24.53 24.619,24.418 24.619,24.194V23.84C24.619,23.086 24.619,22.709 24.481,22.337C24.37,22.042 24.133,21.691 23.899,21.478Z" fill="#000000" fill-opacity="0.8" fill-rule="evenodd"/>
</svg>