<svg xmlns="http://www.w3.org/2000/svg" viewBox="0 0 32.0 32.0" width="32.0" height="32.0">
  <path d="M23.845,11.603L23.845,11.603C24.082,11.736 24.293,11.95 24.433,12.226L24.433,12.226C24.652,12.655 24.697,13.209 24.7,14.215V20.673C24.7,21.438 24.661,21.866 24.611,22.135C24.57,22.362 24.518,22.492 24.433,22.659L24.433,22.659C24.293,22.934 24.082,23.149 23.845,23.282L23.845,23.282C23.698,23.365 23.596,23.408 23.42,23.446C23.206,23.491 22.847,23.533 22.183,23.538C17.94,23.552 13.696,23.547 9.449,23.538H9.445C8.723,23.538 8.333,23.497 8.1,23.45C7.91,23.411 7.804,23.366 7.655,23.282L7.655,23.282C7.418,23.149 7.207,22.934 7.067,22.659L7.067,22.659C6.983,22.495 6.934,22.369 6.893,22.158C6.845,21.91 6.805,21.515 6.8,20.812L6.8,14.212V14.212C6.8,13.447 6.839,13.019 6.889,12.75C6.93,12.523 6.982,12.393 7.067,12.226L7.067,12.226C7.207,11.95 7.418,11.736 7.655,11.603L7.655,11.603C8.034,11.39 8.541,11.346 9.572,11.347H9.574C10.582,11.347 11.321,10.899 11.818,10.305C12.024,10.059 12.175,9.806 12.273,9.634C12.331,9.533 12.368,9.466 12.399,9.409C12.439,9.337 12.469,9.283 12.518,9.2C12.643,8.992 12.702,8.948 12.738,8.926C12.771,8.905 12.95,8.8 13.475,8.8H18.025C18.5,8.8 18.718,8.898 18.816,8.955C18.926,9.019 19.036,9.119 19.195,9.337C19.262,9.428 19.318,9.511 19.392,9.622C19.418,9.66 19.446,9.702 19.477,9.749C19.581,9.902 19.733,10.123 19.917,10.334C20.327,10.804 21.016,11.347 22.055,11.347C22.777,11.347 23.167,11.388 23.4,11.435C23.59,11.474 23.696,11.519 23.845,11.603ZM26.5,20.673V14.212C26.497,13.258 26.479,12.276 26.037,11.409C25.74,10.826 25.281,10.345 24.726,10.033C24.161,9.716 23.6,9.547 22.055,9.547C21.509,9.547 21.232,9.133 20.901,8.64C20.41,7.908 19.802,7 18.025,7H13.475C11.677,7 11.203,7.854 10.804,8.573C10.514,9.096 10.264,9.547 9.574,9.547C8.619,9.546 7.629,9.554 6.774,10.033C6.219,10.345 5.76,10.826 5.463,11.409C5.161,12.002 5,12.59 5,14.212L5,20.818C5.01,22.33 5.17,22.901 5.463,23.476C5.76,24.059 6.219,24.54 6.774,24.852C7.339,25.169 7.9,25.338 9.445,25.338C13.694,25.347 17.944,25.352 22.192,25.337C23.634,25.327 24.178,25.159 24.726,24.852C25.281,24.54 25.74,24.059 26.037,23.476C26.339,22.883 26.5,22.295 26.5,20.673ZM18.805,16.877C18.805,18.564 17.437,19.932 15.75,19.932C14.063,19.932 12.695,18.564 12.695,16.877C12.695,15.19 14.063,13.822 15.75,13.822C17.437,13.822 18.805,15.19 18.805,16.877ZM15.75,21.732C18.431,21.732 20.605,19.558 20.605,16.877C20.605,14.196 18.431,12.022 15.75,12.022C13.069,12.022 10.895,14.196 10.895,16.877C10.895,19.558 13.069,21.732 15.75,21.732Z" fill="#000000" fill-opacity="0.8" fill-rule="evenodd"/>
</svg>