<svg xmlns="http://www.w3.org/2000/svg" viewBox="0 0 32.0 32.0" width="32.0" height="32.0">
  <path d="M7.231,15.552L7.239,15.566C8.273,17.326 10.713,19.888 13.065,22.132C14.064,23.085 15.088,24.014 15.856,24.699C15.968,24.799 16.024,24.849 16.088,24.868C16.144,24.885 16.205,24.884 16.26,24.868C16.324,24.848 16.38,24.799 16.492,24.699C17.204,24.062 18.12,23.227 19.072,22.319C21.32,20.176 23.746,17.654 24.949,15.786L24.962,15.765L24.976,15.745C25.503,14.973 25.812,14.042 25.812,13.033C25.812,10.374 23.656,8.219 20.997,8.219C19.615,8.219 18.37,8.799 17.49,9.735C17.073,10.178 16.865,10.399 16.629,10.498C16.333,10.622 16,10.622 15.703,10.498C15.467,10.399 15.259,10.178 14.842,9.735C13.962,8.799 12.718,8.219 11.335,8.219C8.676,8.219 6.521,10.374 6.521,13.033C6.521,13.954 6.778,14.81 7.223,15.538L7.231,15.552ZM17.402,26.322C16.983,26.694 16.773,26.88 16.52,26.956C16.303,27.021 16.051,27.021 15.834,26.957C15.58,26.881 15.37,26.697 14.952,26.327C12.587,24.239 7.464,19.539 5.672,16.486C5.057,15.48 4.703,14.298 4.703,13.033C4.703,9.37 7.672,6.401 11.335,6.401C12.948,6.401 14.426,6.977 15.575,7.933C15.653,7.998 15.728,8.064 15.803,8.132C15.944,8.26 16.014,8.324 16.079,8.344C16.142,8.363 16.191,8.363 16.254,8.344C16.318,8.324 16.389,8.26 16.53,8.132C16.604,8.064 16.68,7.998 16.757,7.933C17.907,6.977 19.385,6.401 20.997,6.401C24.66,6.401 27.629,9.37 27.629,13.033C27.629,14.419 27.204,15.706 26.477,16.77C24.474,19.882 19.67,24.31 17.402,26.322Z" fill="#000000" fill-opacity="0.8" fill-rule="evenodd"/>
</svg>