<svg xmlns="http://www.w3.org/2000/svg" viewBox="0 0 32.0 32.0" width="32.0" height="32.0">
  <path d="M11.392,25.514L20.839,25.514C23.079,25.514 24.199,25.514 25.055,25.078C25.807,24.695 26.419,24.083 26.803,23.33C27.239,22.474 27.239,21.354 27.239,19.114V13.4C27.239,11.16 27.239,10.04 26.803,9.184C26.419,8.431 25.807,7.819 25.055,7.436C24.199,7 23.079,7 20.839,7L10.4,7C8.16,7 7.04,7 6.184,7.436C5.431,7.819 4.819,8.431 4.436,9.184C4,10.04 4,11.16 4,13.4V19.114C4,21.354 4,22.474 4.436,23.33C4.819,24.083 5.431,24.695 6.184,25.078C7.04,25.514 8.16,25.514 10.4,25.514H11.392ZM6.634,22.806L10.535,18.522C10.574,18.479 10.642,18.479 10.681,18.521L12.415,20.349C13.164,21.139 14.421,21.139 15.171,20.35L19.876,15.398C19.916,15.356 19.983,15.357 20.022,15.4L25.175,21.045C25.155,21.622 25.098,22.004 24.936,22.322C24.715,22.755 24.363,23.107 23.931,23.327C23.438,23.578 22.795,23.578 21.506,23.578L9.732,23.578C8.444,23.578 7.8,23.578 7.308,23.327C7.051,23.196 6.823,23.019 6.634,22.806ZM25.186,18.387L21.351,14.186C20.608,13.372 19.33,13.359 18.571,14.158L13.866,19.11C13.827,19.152 13.76,19.152 13.721,19.11L11.988,17.282C11.228,16.481 9.948,16.494 9.204,17.31L6.057,20.766C6.052,20.513 6.052,20.226 6.052,19.898V12.616C6.052,11.328 6.052,10.684 6.303,10.192C6.524,9.759 6.875,9.407 7.308,9.187C7.8,8.936 8.444,8.936 9.732,8.936L21.506,8.936C22.795,8.936 23.438,8.936 23.931,9.187C24.363,9.407 24.715,9.759 24.936,10.192C25.186,10.684 25.186,11.328 25.186,12.616V18.387ZM12.639,12.319C12.639,13.048 12.048,13.639 11.319,13.639C10.591,13.639 10,13.048 10,12.319C10,11.591 10.591,11 11.319,11C12.048,11 12.639,11.591 12.639,12.319Z" fill="#000000" fill-opacity="0.8" fill-rule="evenodd"/>
</svg>