<svg xmlns="http://www.w3.org/2000/svg" viewBox="0 0 32.0 32.0" width="32.0" height="32.0">
  <path d="M5.648,8.753C5.212,9.608 5.212,10.728 5.212,12.969V19.034C5.212,21.274 5.212,22.394 5.648,23.249C6.031,24.002 6.643,24.614 7.396,24.997C8.252,25.434 9.372,25.434 11.612,25.434H20.388C22.628,25.434 23.749,25.434 24.604,24.997C25.357,24.614 25.969,24.002 26.352,23.249C26.788,22.394 26.788,21.274 26.788,19.034V12.969C26.788,10.728 26.788,9.608 26.352,8.753C25.969,8 25.357,7.388 24.604,7.005C23.749,6.569 22.628,6.569 20.388,6.569H11.612C9.372,6.569 8.252,6.569 7.396,7.005C6.643,7.388 6.031,8 5.648,8.753ZM7.26,9.623C7.009,10.115 7.009,10.759 7.009,12.047V19.947C7.009,21.236 7.009,21.879 7.26,22.372C7.481,22.804 7.832,23.156 8.265,23.377C8.757,23.627 9.401,23.627 10.689,23.627H21.308C22.596,23.627 23.24,23.627 23.732,23.377C24.165,23.156 24.517,22.804 24.738,22.372C24.988,21.879 24.988,21.236 24.988,19.947V12.047C24.988,10.759 24.988,10.115 24.738,9.623C24.517,9.19 24.165,8.839 23.732,8.618C23.24,8.367 22.596,8.367 21.308,8.367H10.689C9.401,8.367 8.757,8.367 8.265,8.618C7.832,8.839 7.481,9.19 7.26,9.623Z" fill="#000000" fill-opacity="0.8" fill-rule="evenodd"/>
  <path d="M9.459,10.192C9.428,10.281 9.428,10.592 9.428,10.813C9.428,11.035 9.428,11.145 9.459,11.234C9.515,11.398 9.644,11.526 9.807,11.583C9.896,11.613 10.007,11.613 10.228,11.613C10.363,11.613 10.473,11.722 10.473,11.857C10.473,12.849 10.473,16.529 10.473,16.584V17.901L10.473,20.144C10.473,20.279 10.363,20.389 10.228,20.389C10.007,20.389 9.896,20.389 9.807,20.42C9.644,20.476 9.515,20.604 9.459,20.768C9.428,20.857 9.428,20.968 9.428,21.189C9.428,21.41 9.428,21.721 9.459,21.81C9.515,21.974 9.644,22.102 9.807,22.158C9.896,22.189 10.007,22.189 10.228,22.189L12.517,22.189C12.739,22.189 12.849,22.189 12.939,22.158C13.102,22.102 13.23,21.974 13.287,21.81C13.317,21.721 13.317,21.41 13.317,21.189C13.317,20.968 13.317,20.857 13.287,20.768C13.23,20.604 13.102,20.476 12.939,20.42C12.849,20.389 12.739,20.389 12.517,20.389C12.382,20.389 12.273,20.279 12.273,20.144L12.273,17.901V16.584C12.273,16.529 12.273,12.849 12.272,11.857C12.272,11.722 12.382,11.613 12.517,11.613C12.739,11.613 12.849,11.613 12.939,11.583C13.102,11.526 13.23,11.398 13.287,11.234C13.317,11.145 13.317,11.035 13.317,10.813C13.317,10.592 13.317,10.281 13.287,10.192C13.23,10.029 13.102,9.9 12.939,9.844C12.849,9.813 12.739,9.813 12.517,9.813H10.228C10.007,9.813 9.896,9.813 9.807,9.844C9.644,9.9 9.515,10.029 9.459,10.192Z" fill="#000000" fill-opacity="0.8"/>
</svg>