<svg xmlns="http://www.w3.org/2000/svg" viewBox="0 0 32.0 32.0" width="32.0" height="32.0">
  <path d="M15.75,15.75m-9.85,-0a9.85,9.85 0,1 0,19.7 -0a9.85,9.85 0,1 0,-19.7 -0" fill="none" stroke="#000000" stroke-width="1.8" stroke-opacity="0.8"/>
  <path d="M11,13.222L11,13.183C11.009,12.534 11.534,12.009 12.183,12L12.222,12L12.26,12C12.91,12.009 13.434,12.534 13.443,13.183L13.443,13.222V13.71L13.443,13.749C13.434,14.398 12.91,14.922 12.26,14.932L12.222,14.932L12.183,14.932C11.534,14.922 11.009,14.398 11,13.749L11,13.71V13.222ZM11.251,18.323C11.545,17.924 12.106,17.838 12.506,18.131L12.511,18.134C12.517,18.138 12.528,18.146 12.545,18.157C12.578,18.18 12.632,18.215 12.703,18.258C12.848,18.344 13.064,18.463 13.339,18.583C13.892,18.825 14.654,19.059 15.523,19.059C16.304,19.058 17.09,18.834 17.705,18.591C18.007,18.471 18.256,18.351 18.427,18.263C18.512,18.219 18.577,18.183 18.62,18.159C18.641,18.147 18.656,18.138 18.665,18.133L18.673,18.128C19.098,17.87 19.651,18.004 19.91,18.428C20.169,18.853 20.034,19.407 19.61,19.665L19.141,18.897C19.61,19.665 19.61,19.665 19.61,19.666L19.609,19.666L19.608,19.666L19.606,19.668L19.599,19.672L19.578,19.684C19.56,19.695 19.536,19.709 19.506,19.726C19.446,19.76 19.36,19.807 19.253,19.862C19.039,19.973 18.735,20.119 18.368,20.264C17.643,20.551 16.619,20.858 15.523,20.858C14.337,20.859 13.326,20.542 12.618,20.233C12.262,20.077 11.977,19.921 11.777,19.801C11.677,19.741 11.598,19.69 11.541,19.652C11.513,19.633 11.49,19.617 11.474,19.605L11.453,19.59L11.446,19.585L11.443,19.583L11.442,19.582L11.441,19.582C11.441,19.582 11.441,19.581 11.975,18.857L11.441,19.581C11.041,19.286 10.956,18.723 11.251,18.323ZM17.841,13.183L17.841,13.222V13.71L17.841,13.749C17.85,14.398 18.375,14.922 19.024,14.932L19.063,14.932L19.101,14.932C19.751,14.922 20.275,14.398 20.284,13.749L20.284,13.71V13.222L20.284,13.183C20.275,12.534 19.751,12.009 19.101,12L19.063,12L19.024,12C18.375,12.009 17.85,12.534 17.841,13.183Z" fill="#000000" fill-opacity="0.8" fill-rule="evenodd"/>
</svg>