<svg xmlns="http://www.w3.org/2000/svg" viewBox="0 0 40.0 40.0" width="40.0" height="40.0">
  <path d="M20.001,15.125m-4.33,0a4.33,4.33 0,1 1,8.66 0a4.33,4.33 0,1 1,-8.66 0" fill="none" stroke="#000000" stroke-width="1.8" stroke-opacity="0.8"/>
  <path d="M29.008,23.804C28.482,23.379 28.039,23.229 27.151,22.927C24.913,22.167 22.506,21.753 19.998,21.753C17.493,21.753 15.088,22.166 12.852,22.924C11.963,23.226 11.519,23.377 10.992,23.803C10.529,24.177 10.02,24.887 9.814,25.446C9.581,26.081 9.581,26.691 9.581,27.912C9.581,28.864 9.581,29.34 9.766,29.703C9.929,30.023 10.189,30.283 10.509,30.446C10.872,30.632 11.349,30.632 12.301,30.632H27.7C28.652,30.632 29.128,30.632 29.492,30.446C29.812,30.283 30.072,30.023 30.235,29.703C30.42,29.34 30.42,28.864 30.42,27.912C30.42,26.693 30.42,26.084 30.187,25.45C29.981,24.89 29.472,24.179 29.008,23.804ZM27.899,25.478C27.605,25.211 27.313,25.094 26.729,24.86C24.611,24.013 22.263,23.541 19.792,23.541C17.515,23.541 15.344,23.941 13.36,24.667C12.751,24.89 12.446,25.001 12.14,25.269C11.896,25.481 11.646,25.838 11.531,26.14C11.385,26.52 11.385,26.908 11.385,27.684V28.194C11.385,28.418 11.385,28.53 11.429,28.615C11.467,28.69 11.528,28.752 11.603,28.79C11.689,28.834 11.801,28.834 12.025,28.834H27.979C28.203,28.834 28.315,28.834 28.401,28.79C28.476,28.752 28.537,28.69 28.576,28.615C28.619,28.53 28.619,28.418 28.619,28.194V27.84C28.619,27.086 28.619,26.709 28.481,26.337C28.37,26.042 28.133,25.691 27.899,25.478Z" fill="#000000" fill-opacity="0.8" fill-rule="evenodd"/>
</svg>