<svg xmlns="http://www.w3.org/2000/svg" viewBox="0 0 32.0 32.0" width="32.0" height="32.0">
  <path d="M2,2.001h28v28h-28z" fill="none"/>
  <path d="M5.81,13.314L6.302,13.314A0.56,0.56 0,0 1,6.863 13.873L6.863,18.128A0.56,0.56 0,0 1,6.302 18.688L5.81,18.688A0.56,0.56 0,0 1,5.25 18.128L5.25,13.873A0.56,0.56 0,0 1,5.81 13.314z" fill="#000000" fill-opacity="0.8"/>
  <path d="M9.124,10.178L9.617,10.178A0.56,0.56 0,0 1,10.177 10.738L10.177,21.264A0.56,0.56 0,0 1,9.617 21.824L9.124,21.824A0.56,0.56 0,0 1,8.564 21.264L8.564,10.738A0.56,0.56 0,0 1,9.124 10.178z" fill="#000000" fill-opacity="0.8"/>
  <path d="M12.439,11.522L12.931,11.522A0.56,0.56 0,0 1,13.491 12.082L13.491,19.92A0.56,0.56 0,0 1,12.931 20.48L12.439,20.48A0.56,0.56 0,0 1,11.879 19.92L11.879,12.082A0.56,0.56 0,0 1,12.439 11.522z" fill="#000000" fill-opacity="0.8"/>
  <path d="M15.754,25.855L16.246,25.855A0.56,0.56 135,0 0,16.806 25.295L16.806,6.707A0.56,0.56 135,0 0,16.246 6.147L15.754,6.147A0.56,0.56 135,0 0,15.194 6.707L15.194,25.295A0.56,0.56 135,0 0,15.754 25.855z" fill="#000000" fill-opacity="0.8"/>
  <path d="M19.068,21.824L19.561,21.824A0.56,0.56 135,0 0,20.121 21.264L20.121,10.738A0.56,0.56 135,0 0,19.561 10.178L19.068,10.178A0.56,0.56 45,0 0,18.508 10.738L18.508,21.264A0.56,0.56 135,0 0,19.068 21.824z" fill="#000000" fill-opacity="0.8"/>
  <path d="M22.383,19.584L22.875,19.584A0.56,0.56 135,0 0,23.435 19.024L23.435,12.978A0.56,0.56 135,0 0,22.875 12.418L22.383,12.418A0.56,0.56 135,0 0,21.823 12.978L21.823,19.024A0.56,0.56 135,0 0,22.383 19.584z" fill="#000000" fill-opacity="0.8"/>
  <path d="M25.698,18.24L26.19,18.24A0.56,0.56 135,0 0,26.75 17.681L26.75,14.321A0.56,0.56 135,0 0,26.19 13.761L25.698,13.761A0.56,0.56 135,0 0,25.138 14.321L25.138,17.681A0.56,0.56 135,0 0,25.698 18.24z" fill="#000000" fill-opacity="0.8"/>
</svg>