<svg xmlns="http://www.w3.org/2000/svg" viewBox="0 0 32.0 32.0" width="32.0" height="32.0">
  <path d="M24.7,15.751C24.7,20.694 20.693,24.701 15.75,24.701C10.807,24.701 6.8,20.694 6.8,15.751C6.8,10.808 10.807,6.801 15.75,6.801C20.693,6.801 24.7,10.808 24.7,15.751ZM15.75,26.501C21.687,26.501 26.5,21.688 26.5,15.751C26.5,9.814 21.687,5.001 15.75,5.001C9.813,5.001 5,9.814 5,15.751C5,21.688 9.813,26.501 15.75,26.501ZM15.263,11.12C15.263,10.807 15.263,10.65 15.324,10.53C15.377,10.425 15.463,10.339 15.568,10.285C15.688,10.224 15.847,10.224 16.163,10.224C16.479,10.224 16.637,10.224 16.757,10.285C16.862,10.339 16.948,10.425 17.002,10.53C17.063,10.65 17.063,10.807 17.063,11.12V14.776H20.749C21.063,14.776 21.219,14.776 21.339,14.837C21.445,14.891 21.53,14.977 21.584,15.082C21.645,15.202 21.645,15.36 21.645,15.677C21.645,15.993 21.645,16.151 21.584,16.271C21.53,16.376 21.445,16.462 21.339,16.515C21.219,16.576 21.063,16.576 20.749,16.576H17.063H16.703H16.677H16.193C16.108,16.576 16.025,16.565 15.947,16.542C15.874,16.528 15.811,16.508 15.754,16.478C15.585,16.392 15.447,16.254 15.361,16.085C15.263,15.893 15.263,15.641 15.263,15.137V11.12Z" fill="#000000" fill-opacity="0.8" fill-rule="evenodd"/>
</svg>