<svg xmlns="http://www.w3.org/2000/svg" viewBox="0 0 32.0 32.0" width="32.0" height="32.0">
  <path d="M5,13.401C5,11.161 5,10.041 5.436,9.185C5.819,8.432 6.431,7.82 7.184,7.437C8.04,7.001 9.16,7.001 11.4,7.001H20.1C22.34,7.001 23.46,7.001 24.316,7.437C25.069,7.82 25.681,8.432 26.064,9.185C26.5,10.041 26.5,11.161 26.5,13.401V18.501C26.5,20.741 26.5,21.861 26.064,22.717C25.681,23.47 25.069,24.081 24.316,24.465C23.46,24.901 22.34,24.901 20.1,24.901H11.4C9.16,24.901 8.04,24.901 7.184,24.465C6.431,24.081 5.819,23.47 5.436,22.717C5,21.861 5,20.741 5,18.501V13.401ZM6.8,12.576C6.8,11.288 6.8,10.644 7.051,10.152C7.271,9.719 7.623,9.367 8.056,9.147C8.548,8.896 9.192,8.896 10.48,8.896H21.02C22.308,8.896 22.952,8.896 23.444,9.147C23.877,9.367 24.229,9.719 24.449,10.152C24.7,10.644 24.7,11.288 24.7,12.576V19.326C24.7,20.614 24.7,21.258 24.449,21.75C24.229,22.183 23.877,22.535 23.444,22.755C22.952,23.006 22.308,23.006 21.02,23.006H10.48C9.192,23.006 8.548,23.006 8.056,22.755C7.623,22.535 7.271,22.183 7.051,21.75C6.8,21.258 6.8,20.614 6.8,19.326V12.576ZM15.455,11.771C13.825,10.848 11.804,12.026 11.804,13.899L11.804,18.003C11.804,19.904 13.879,21.078 15.509,20.1L19.027,17.987C20.632,17.023 20.603,14.685 18.972,13.762L15.455,11.771ZM13.404,13.899C13.404,13.251 14.103,12.844 14.667,13.163L18.184,15.155C18.748,15.474 18.758,16.282 18.203,16.616L14.685,18.728C14.122,19.066 13.404,18.66 13.404,18.003V13.899Z" fill="#000000" fill-opacity="0.8" fill-rule="evenodd"/>
</svg>