<svg xmlns="http://www.w3.org/2000/svg" viewBox="0 0 40.0 40.0" width="40.0" height="40.0">
  <path d="M20,0L20,0A20,20 0,0 1,40 20L40,20A20,20 0,0 1,20 40L20,40A20,20 0,0 1,0 20L0,20A20,20 0,0 1,20 0z" fill="#000000" fill-opacity="0.06"/>
  <path d="M15.885,14.312C15.885,13.864 15.885,13.64 15.972,13.469C16.049,13.318 16.171,13.196 16.322,13.119C16.493,13.032 16.717,13.032 17.165,13.032H18.183C18.631,13.032 18.855,13.032 19.026,13.119C19.177,13.196 19.299,13.318 19.376,13.469C19.463,13.64 19.463,13.864 19.463,14.312V15.33C19.463,15.778 19.463,16.002 19.376,16.174C19.299,16.324 19.177,16.446 19.026,16.523C18.855,16.61 18.631,16.61 18.183,16.61H17.165C16.717,16.61 16.493,16.61 16.322,16.523C16.171,16.446 16.049,16.324 15.972,16.174C15.885,16.002 15.885,15.778 15.885,15.33V14.312ZM11.233,14.312C11.233,13.864 11.233,13.64 11.32,13.469C11.397,13.318 11.519,13.196 11.67,13.119C11.841,13.032 12.065,13.032 12.513,13.032H13.531C13.979,13.032 14.203,13.032 14.375,13.119C14.525,13.196 14.647,13.318 14.724,13.469C14.811,13.64 14.811,13.864 14.811,14.312V15.33C14.811,15.778 14.811,16.002 14.724,16.174C14.647,16.324 14.525,16.446 14.375,16.523C14.203,16.61 13.979,16.61 13.531,16.61H12.513C12.065,16.61 11.841,16.61 11.67,16.523C11.519,16.446 11.397,16.324 11.32,16.174C11.233,16.002 11.233,15.778 11.233,15.33V14.312ZM11.233,19.679C11.233,19.231 11.233,19.007 11.32,18.836C11.397,18.686 11.519,18.563 11.67,18.487C11.841,18.399 12.065,18.399 12.513,18.399H13.531C13.979,18.399 14.203,18.399 14.375,18.487C14.525,18.563 14.647,18.686 14.724,18.836C14.811,19.007 14.811,19.231 14.811,19.679V20.698C14.811,21.146 14.811,21.37 14.724,21.541C14.647,21.691 14.525,21.814 14.375,21.891C14.203,21.978 13.979,21.978 13.531,21.978H12.513C12.065,21.978 11.841,21.978 11.67,21.891C11.519,21.814 11.397,21.691 11.32,21.541C11.233,21.37 11.233,21.146 11.233,20.698V19.679ZM14.898,24.691C14.811,24.862 14.811,25.086 14.811,25.534V25.688C14.811,26.136 14.811,26.36 14.898,26.531C14.975,26.682 15.097,26.804 15.248,26.881C15.419,26.968 15.643,26.968 16.091,26.968H23.909C24.357,26.968 24.581,26.968 24.752,26.881C24.902,26.804 25.025,26.682 25.101,26.531C25.189,26.36 25.189,26.136 25.189,25.688V25.534C25.189,25.086 25.189,24.862 25.101,24.691C25.025,24.54 24.902,24.418 24.752,24.341C24.581,24.254 24.357,24.254 23.909,24.254H16.091C15.643,24.254 15.419,24.254 15.248,24.341C15.097,24.418 14.975,24.54 14.898,24.691ZM15.972,18.836C15.885,19.007 15.885,19.231 15.885,19.679V20.698C15.885,21.146 15.885,21.37 15.972,21.541C16.049,21.691 16.171,21.814 16.322,21.891C16.493,21.978 16.717,21.978 17.165,21.978H18.183C18.631,21.978 18.855,21.978 19.026,21.891C19.177,21.814 19.299,21.691 19.376,21.541C19.463,21.37 19.463,21.146 19.463,20.698V19.679C19.463,19.231 19.463,19.007 19.376,18.836C19.299,18.686 19.177,18.563 19.026,18.487C18.855,18.399 18.631,18.399 18.183,18.399H17.165C16.717,18.399 16.493,18.399 16.322,18.487C16.171,18.563 16.049,18.686 15.972,18.836ZM20.537,14.312C20.537,13.864 20.537,13.64 20.624,13.469C20.701,13.318 20.823,13.196 20.973,13.119C21.145,13.032 21.368,13.032 21.817,13.032H22.835C23.283,13.032 23.507,13.032 23.678,13.119C23.829,13.196 23.951,13.318 24.028,13.469C24.115,13.64 24.115,13.864 24.115,14.312V15.33C24.115,15.778 24.115,16.002 24.028,16.174C23.951,16.324 23.829,16.446 23.678,16.523C23.507,16.61 23.283,16.61 22.835,16.61H21.817C21.368,16.61 21.145,16.61 20.973,16.523C20.823,16.446 20.701,16.324 20.624,16.174C20.537,16.002 20.537,15.778 20.537,15.33V14.312ZM20.624,18.836C20.537,19.007 20.537,19.231 20.537,19.679V20.698C20.537,21.146 20.537,21.37 20.624,21.541C20.701,21.691 20.823,21.814 20.973,21.891C21.145,21.978 21.368,21.978 21.817,21.978H22.835C23.283,21.978 23.507,21.978 23.678,21.891C23.829,21.814 23.951,21.691 24.028,21.541C24.115,21.37 24.115,21.146 24.115,20.698V19.679C24.115,19.231 24.115,19.007 24.028,18.836C23.951,18.686 23.829,18.563 23.678,18.487C23.507,18.399 23.283,18.399 22.835,18.399H21.817C21.368,18.399 21.145,18.399 20.973,18.487C20.823,18.563 20.701,18.686 20.624,18.836ZM25.189,14.312C25.189,13.864 25.189,13.64 25.276,13.469C25.353,13.318 25.475,13.196 25.625,13.119C25.797,13.032 26.021,13.032 26.469,13.032H27.487C27.935,13.032 28.159,13.032 28.33,13.119C28.481,13.196 28.603,13.318 28.68,13.469C28.767,13.64 28.767,13.864 28.767,14.312V15.33C28.767,15.778 28.767,16.002 28.68,16.174C28.603,16.324 28.481,16.446 28.33,16.523C28.159,16.61 27.935,16.61 27.487,16.61H26.469C26.021,16.61 25.797,16.61 25.625,16.523C25.475,16.446 25.353,16.324 25.276,16.174C25.189,16.002 25.189,15.778 25.189,15.33V14.312ZM25.276,18.836C25.189,19.007 25.189,19.231 25.189,19.679V20.698C25.189,21.146 25.189,21.37 25.276,21.541C25.353,21.691 25.475,21.814 25.625,21.891C25.797,21.978 26.021,21.978 26.469,21.978H27.487C27.935,21.978 28.159,21.978 28.33,21.891C28.481,21.814 28.603,21.691 28.68,21.541C28.767,21.37 28.767,21.146 28.767,20.698V19.679C28.767,19.231 28.767,19.007 28.68,18.836C28.603,18.686 28.481,18.563 28.33,18.487C28.159,18.399 27.935,18.399 27.487,18.399H26.469C26.021,18.399 25.797,18.399 25.625,18.487C25.475,18.563 25.353,18.686 25.276,18.836Z" fill="#000000" fill-opacity="0.8" fill-rule="evenodd"/>
</svg>