<svg xmlns="http://www.w3.org/2000/svg" viewBox="0 0 1330 1330" width="24" height="24">
  <g transform="scale(1,-1) translate(0,-1040)">
    <path d="M1083 39Q1081 77 1076 110Q1066 200 1042 300H1087Q1100 300 1107.0 307.5Q1114 315 1114 328V341Q1114 403 1112.0 429.5Q1110 456 1101 475Q1084 512 1049 535Q1031 547 1004.0 553.5Q977 560 920 568L843 579Q818 583 807.5 596.0Q797 609 797 639V822Q797 848 796.0 866.5Q795 885 791 896Q784 915 769.0 930.0Q754 945 734 953Q723 957 704.5 958.0Q686 959 660 959Q634 959 615.5 958.0Q597 957 585 953Q566 946 551.0 931.0Q536 916 528 896Q524 885 523.0 866.5Q522 848 522 822V639Q522 609 512.0 595.5Q502 582 478 579L399 568Q342 560 315.0 553.5Q288 547 270 535Q235 512 218 475Q209 456 207.0 429.5Q205 403 205 341V327Q205 314 212.0 307.0Q219 300 232 300H279Q285 230 285.0 164.0Q285 98 275 61L272 51Q263 24 248.0 -5.5Q233 -35 201 -86Q184 -114 192.0 -134.5Q200 -155 238 -155H859Q920 -155 972.0 -131.0Q1024 -107 1054.5 -62.5Q1085 -18 1083 39ZM319 -55Q333 -27 342.0 -4.5Q351 18 357 38Q368 74 370 147Q372 205 365 300H954Q975 216 992 99Q995 77 997 36Q998 9 982.0 -15.5Q966 -40 934.5 -55.0Q903 -70 859 -70H813Q829 -47 839.5 -22.5Q850 2 853 30Q857 78 853 137Q851 153 845.0 161.5Q839 170 824 170H797Q779 170 771.5 160.0Q764 150 766 134Q771 79 769 45Q768 22 754.5 -2.5Q741 -27 721 -49Q700 -70 667 -70H330Q321 -70 318.5 -66.0Q316 -62 319 -55ZM291 393V412Q291 441 294 449Q299 459 308 465Q317 470 342 473L478 494Q520 500 536.5 504.0Q553 508 565 515Q586 529 599 556Q605 569 607.0 587.5Q609 606 609 644V844Q609 859 615.5 866.0Q622 873 635 873H683Q699 873 705.0 866.5Q711 860 711 844V644Q711 604 712.5 586.0Q714 568 720 556Q730 531 754 515Q766 508 782.5 504.0Q799 500 841 494L977 473Q1002 470 1011 465Q1020 459 1025 449Q1028 444 1028.5 434.5Q1029 425 1029 412V393Q1029 390 1027.0 388.0Q1025 386 1022 386H298Q295 386 293.0 388.0Q291 390 291 393Z" fill="currentColor"/>
  </g>
</svg>