<svg xmlns="http://www.w3.org/2000/svg" viewBox="0 0 800 800" width="800" height="800">
  <path d="M400,-0L400,-0A2,2 0,0 1,402 2L402,28A2,2 0,0 1,400 30L400,30A2,2 0,0 1,398 28L398,2A2,2 0,0 1,400 -0z" fill="#ffffff"/>
  <path d="M400,770L400,770A2,2 45,0 1,402 772L402,798A2,2 45,0 1,400 800L400,800A2,2 45,0 1,398 798L398,772A2,2 45,0 1,400 770z" fill="#ffffff"/>
  <path d="M386.04,0.24L386.04,0.24A1,1 127.23,0 1,387.08 1.21L388.05,29.19A1,1 91.64,0 1,387.09 30.23L387.09,30.23A1,1 91.64,0 1,386.05 29.26L385.08,1.28A1,1 127.23,0 1,386.04 0.24z" fill="#ffffff" fill-opacity="0.5"/>
  <path d="M412.91,769.71L412.91,769.71A1,1 133.37,0 1,413.95 770.67L414.92,798.66A1,1 133.37,0 1,413.96 799.69L413.96,799.69A1,1 133.37,0 1,412.92 798.73L411.95,770.74A1,1 133.37,0 1,412.91 769.71z" fill="#ffffff" fill-opacity="0.5"/>
  <path d="M372.1,0.97L372.1,0.97A1,1 131.24,0 1,373.17 1.9L375.12,29.83A1,1 47.88,0 1,374.19 30.9L374.19,30.9A1,1 47.88,0 1,373.12 29.97L371.17,2.04A1,1 131.24,0 1,372.1 0.97z" fill="#ffffff" fill-opacity="0.5"/>
  <path d="M425.81,769.03L425.81,769.03A1,1 131.04,0 1,426.87 769.96L428.83,797.89A1,1 131.04,0 1,427.9 798.96L427.9,798.96A1,1 131.04,0 1,426.83 798.03L424.88,770.1A1,1 131.04,0 1,425.81 769.03z" fill="#ffffff" fill-opacity="0.5"/>
  <path d="M358.19,2.19L358.19,2.19A1,1 120.85,0 1,359.29 3.08L362.22,30.93A1,1 45.66,0 1,361.33 32.03L361.33,32.03A1,1 118.08,0 1,360.23 31.14L357.3,3.29A1,1 120.85,0 1,358.19 2.19z" fill="#ffffff" fill-opacity="0.5"/>
  <path d="M438.67,767.91L438.67,767.91A1,1 129.31,0 1,439.77 768.8L442.7,796.65A1,1 129.31,0 1,441.81 797.74L441.81,797.74A1,1 129.31,0 1,440.71 796.85L437.78,769.01A1,1 129.31,0 1,438.67 767.91z" fill="#ffffff" fill-opacity="0.5"/>
  <path d="M344.34,3.89L344.34,3.89A1,1 105.45,0 1,345.46 4.74L349.36,32.47A1,1 105.45,0 1,348.51 33.6L348.51,33.6A1,1 105.45,0 1,347.38 32.75L343.48,5.02A1,1 105.45,0 1,344.34 3.89z" fill="#ffffff" fill-opacity="0.5"/>
  <path d="M451.49,766.33L451.49,766.33A1,1 127.02,0 1,452.62 767.19L456.51,794.91A1,1 127.02,0 1,455.66 796.04L455.66,796.04A1,1 127.02,0 1,454.53 795.19L450.64,767.46A1,1 127.02,0 1,451.49 766.33z" fill="#ffffff" fill-opacity="0.5"/>
  <path d="M330.55,6.08L330.55,6.08A1,1 127.9,0 1,331.7 6.89L336.57,34.46A1,1 127.5,0 1,335.76 35.62L335.76,35.62A1,1 127.5,0 1,334.6 34.81L329.73,7.23A1,1 127.9,0 1,330.55 6.08z" fill="#ffffff" fill-opacity="0.5"/>
  <path d="M464.24,764.31L464.24,764.31A1,1 125.4,0 1,465.4 765.13L470.26,792.7A1,1 125.4,0 1,469.45 793.86L469.45,793.86A1,1 125.4,0 1,468.29 793.05L463.43,765.47A1,1 125.4,0 1,464.24 764.31z" fill="#ffffff" fill-opacity="0.5"/>
  <path d="M316.84,8.74L316.84,8.74A1,1 119.04,0 1,318.03 9.51L323.85,36.9A1,1 71.73,0 1,323.08 38.08L323.08,38.08A1,1 71.73,0 1,321.89 37.31L316.07,9.93A1,1 119.04,0 1,316.84 8.74z" fill="#ffffff" fill-opacity="0.5"/>
  <path d="M476.92,761.85L476.92,761.85A1,1 123.09,0 1,478.11 762.62L483.93,790.01A1,1 123.09,0 1,483.16 791.2L483.16,791.2A1,1 123.09,0 1,481.97 790.43L476.15,763.04A1,1 123.09,0 1,476.92 761.85z" fill="#ffffff" fill-opacity="0.5"/>
  <path d="M303.24,11.88L303.24,11.88A1,1 120.98,0 1,304.45 12.61L311.22,39.78A1,1 116.01,0 1,310.5 40.99L310.5,40.99A1,1 116.01,0 1,309.28 40.26L302.51,13.09A1,1 120.98,0 1,303.24 11.88z" fill="#ffffff" fill-opacity="0.5"/>
  <path d="M489.5,758.95L489.5,758.95A1,1 121.34,0 1,490.72 759.67L497.49,786.84A1,1 121.34,0 1,496.76 788.06L496.76,788.06A1,1 121.34,0 1,495.55 787.33L488.77,760.16A1,1 121.34,0 1,489.5 758.95z" fill="#ffffff" fill-opacity="0.5"/>
  <path d="M289.75,15.49L289.75,15.49A1,1 99.95,0 1,290.99 16.18L298.71,43.09A1,1 129.41,0 1,298.02 44.33L298.02,44.33A1,1 129.41,0 1,296.79 43.65L289.07,16.73A1,1 48.28,0 1,289.75 15.49z" fill="#ffffff" fill-opacity="0.5"/>
  <path d="M501.98,755.6L501.98,755.6A1,1 119,0 1,503.21 756.29L510.93,783.2A1,1 119,0 1,510.24 784.44L510.24,784.44A1,1 119,0 1,509.01 783.76L501.29,756.84A1,1 119,0 1,501.98 755.6z" fill="#ffffff" fill-opacity="0.5"/>
  <path d="M276.4,19.58L276.4,19.58A1,1 128.36,0 1,277.66 20.22L286.32,46.85A1,1 129.89,0 1,285.67 48.11L285.67,48.11A1,1 129.89,0 1,284.41 47.47L275.76,20.84A1,1 128.36,0 1,276.4 19.58z" fill="#ffffff" fill-opacity="0.5"/>
  <path d="M514.33,751.83L514.33,751.83A1,1 117.21,0 1,515.59 752.47L524.24,779.1A1,1 117.21,0 1,523.6 780.36L523.6,780.36A1,1 117.21,0 1,522.34 779.72L513.68,753.09A1,1 117.21,0 1,514.33 751.83z" fill="#ffffff" fill-opacity="0.5"/>
  <path d="M263.2,24.12L263.2,24.12A1,1 49.79,0 1,264.48 24.72L274.06,51.03A1,1 117.86,0 1,273.46 52.31L273.46,52.31A1,1 117.86,0 1,272.18 51.71L262.61,25.4A1,1 49.79,0 1,263.2 24.12z" fill="#ffffff" fill-opacity="0.5"/>
  <path d="M526.54,747.62L526.54,747.62A1,1 114.94,0 1,527.82 748.22L537.39,774.53A1,1 114.94,0 1,536.8 775.81L536.8,775.81A1,1 114.94,0 1,535.51 775.22L525.94,748.9A1,1 114.94,0 1,526.54 747.62z" fill="#ffffff" fill-opacity="0.5"/>
  <path d="M250.17,29.12L250.17,29.12A1,1 112.99,0 1,251.47 29.68L261.96,55.64A1,1 119.62,0 1,261.41 56.94L261.41,56.94A1,1 119.62,0 1,260.11 56.39L249.62,30.43A1,1 112.99,0 1,250.17 29.12z" fill="#ffffff" fill-opacity="0.5"/>
  <path d="M538.59,743L538.59,743A1,1 113.32,0 1,539.89 743.55L550.38,769.51A1,1 113.32,0 1,549.83 770.81L549.83,770.81A1,1 113.32,0 1,548.53 770.26L538.04,744.3A1,1 113.32,0 1,538.59 743z" fill="#ffffff" fill-opacity="0.5"/>
  <path d="M237.32,34.58L237.32,34.58A1,1 126.73,0 1,238.64 35.09L250.03,60.66A1,1 121.6,0 1,249.52 61.99L249.52,61.99A1,1 53.93,0 1,248.2 61.48L236.81,35.9A1,1 126.73,0 1,237.32 34.58z" fill="#ffffff" fill-opacity="0.5"/>
  <path d="M550.48,737.95L550.48,737.95A1,1 110.88,0 1,551.8 738.46L563.19,764.04A1,1 110.88,0 1,562.68 765.36L562.68,765.36A1,1 110.88,0 1,561.36 764.85L549.97,739.27A1,1 110.88,0 1,550.48 737.95z" fill="#ffffff" fill-opacity="0.5"/>
  <path d="M224.67,40.48L224.67,40.48A1,1 127.05,0 1,226 40.94L238.28,66.11A1,1 131.94,0 1,237.82 67.44L237.82,67.44A1,1 131.94,0 1,236.48 66.98L224.21,41.82A1,1 127.05,0 1,224.67 40.48z" fill="#ffffff" fill-opacity="0.5"/>
  <path d="M562.18,732.49L562.18,732.49A1,1 109.01,0 1,563.52 732.95L575.79,758.12A1,1 109.01,0 1,575.33 759.46L575.33,759.46A1,1 109.01,0 1,574 759L561.72,733.83A1,1 109.01,0 1,562.18 732.49z" fill="#ffffff" fill-opacity="0.5"/>
  <path d="M212.23,46.82L212.23,46.82A1,1 76.31,0 1,213.58 47.23L226.72,71.95A1,1 108.43,0 1,226.31 73.31L226.31,73.31A1,1 108.43,0 1,224.96 72.89L211.81,48.17A1,1 76.31,0 1,212.23 46.82z" fill="#ffffff" fill-opacity="0.5"/>
  <path d="M573.69,726.63L573.69,726.63A1,1 107.4,0 1,575.04 727.04L588.19,751.77A1,1 107.4,0 1,587.77 753.12L587.77,753.12A1,1 107.4,0 1,586.42 752.71L573.28,727.98A1,1 107.4,0 1,573.69 726.63z" fill="#ffffff" fill-opacity="0.5"/>
  <path d="M200.02,53.59L200.02,53.59A1,1 96.93,0 1,201.38 53.95L215.38,78.2A1,1 96.93,0 1,215.02 79.57L215.02,79.57A1,1 96.93,0 1,213.65 79.2L199.65,54.95A1,1 96.93,0 1,200.02 53.59z" fill="#ffffff"/>
  <path d="M584.98,720.37L584.98,720.37A1,1 104.94,0 1,586.35 720.74L600.35,744.98A1,1 104.94,0 1,599.98 746.35L599.98,746.35A1,1 104.94,0 1,598.62 745.98L584.62,721.74A1,1 104.94,0 1,584.98 720.37z" fill="#ffffff"/>
  <path d="M188.05,60.78L188.05,60.78A1,1 133.02,0 1,189.43 61.09L204.26,84.84A1,1 94.47,0 1,203.95 86.22L203.95,86.22A1,1 94.47,0 1,202.57 85.9L187.73,62.15A1,1 133.02,0 1,188.05 60.78z" fill="#ffffff" fill-opacity="0.5"/>
  <path d="M596.05,713.72L596.05,713.72A1,1 103.07,0 1,597.43 714.04L612.27,737.78A1,1 103.07,0 1,611.95 739.16L611.95,739.16A1,1 103.07,0 1,610.57 738.84L595.73,715.1A1,1 103.07,0 1,596.05 713.72z" fill="#ffffff" fill-opacity="0.5"/>
  <path d="M176.34,68.38L176.34,68.38A1,1 110.61,0 1,177.73 68.65L193.39,91.86A1,1 121.5,0 1,193.12 93.25L193.12,93.25A1,1 121.5,0 1,191.73 92.98L176.07,69.77A1,1 110.61,0 1,176.34 68.38z" fill="#ffffff" fill-opacity="0.5"/>
  <path d="M606.88,706.68L606.88,706.68A1,1 101.18,0 1,608.27 706.95L623.93,730.17A1,1 101.18,0 1,623.66 731.56L623.66,731.56A1,1 101.18,0 1,622.27 731.29L606.61,708.07A1,1 101.18,0 1,606.88 706.68z" fill="#ffffff" fill-opacity="0.5"/>
  <path d="M164.9,76.39L164.9,76.39A1,1 118.95,0 1,166.3 76.61L182.76,99.26A1,1 83.23,0 1,182.54 100.66L182.54,100.66A1,1 83.23,0 1,181.14 100.44L164.68,77.78A1,1 118.95,0 1,164.9 76.39z" fill="#ffffff" fill-opacity="0.5"/>
  <path d="M617.46,699.28L617.46,699.28A1,1 98.7,0 1,618.86 699.5L635.31,722.15A1,1 98.7,0 1,635.09 723.55L635.09,723.55A1,1 98.7,0 1,633.7 723.33L617.24,700.67A1,1 98.7,0 1,617.46 699.28z" fill="#ffffff" fill-opacity="0.5"/>
  <path d="M153.76,84.79L153.76,84.79A1,1 83.77,0 1,155.16 84.96L172.4,107.03A1,1 79.74,0 1,172.22 108.43L172.22,108.43A1,1 79.74,0 1,170.82 108.26L153.58,86.19A1,1 83.77,0 1,153.76 84.79z" fill="#ffffff" fill-opacity="0.5"/>
  <path d="M627.78,691.51L627.78,691.51A1,1 97.17,0 1,629.18 691.68L646.42,713.74A1,1 97.17,0 1,646.24 715.15L646.24,715.15A1,1 97.17,0 1,644.84 714.98L627.6,692.91A1,1 97.17,0 1,627.78 691.51z" fill="#ffffff" fill-opacity="0.5"/>
  <path d="M142.91,93.57L142.91,93.57A1,1 94.94,0 1,144.31 93.7L162.31,115.15A1,1 107.66,0 1,162.19 116.56L162.19,116.56A1,1 107.66,0 1,160.78 116.43L142.78,94.98A1,1 94.94,0 1,142.91 93.57z" fill="#ffffff" fill-opacity="0.5"/>
  <path d="M637.81,683.38L637.81,683.38A1,1 95.28,0 1,639.22 683.5L657.22,704.95A1,1 95.28,0 1,657.09 706.36L657.09,706.36A1,1 95.28,0 1,655.68 706.24L637.69,684.79A1,1 95.28,0 1,637.81 683.38z" fill="#ffffff" fill-opacity="0.5"/>
  <path d="M132.37,102.73L132.37,102.73A1,1 92.86,0 1,133.78 102.81L152.52,123.61A1,1 105.83,0 1,152.44 125.03L152.44,125.03A1,1 105.83,0 1,151.03 124.95L132.3,104.15A1,1 92.86,0 1,132.37 102.73z" fill="#ffffff" fill-opacity="0.5"/>
  <path d="M647.56,674.91L647.56,674.91A1,1 93.32,0 1,648.97 674.98L667.7,695.79A1,1 93.32,0 1,667.63 697.2L667.63,697.2A1,1 93.32,0 1,666.22 697.13L647.48,676.32A1,1 93.32,0 1,647.56 674.91z" fill="#ffffff" fill-opacity="0.5"/>
  <path d="M122.16,112.25L122.16,112.25A1,1 63.61,0 1,123.57 112.28L143.02,132.42A1,1 111.77,0 1,143 133.83L143,133.83A1,1 111.77,0 1,141.58 133.81L122.13,113.67A1,1 63.61,0 1,122.16 112.25z" fill="#ffffff" fill-opacity="0.5"/>
  <path d="M657,666.1L657,666.1A1,1 90.98,0 1,658.41 666.12L677.86,686.27A1,1 90.98,0 1,677.84 687.68L677.84,687.68A1,1 90.98,0 1,676.43 687.66L656.98,667.51A1,1 90.98,0 1,657 666.1z" fill="#ffffff" fill-opacity="0.5"/>
  <path d="M112.29,122.13L112.29,122.13A1,1 80.48,0 1,113.7 122.1L133.84,141.55A1,1 89.03,0 1,133.87 142.97L133.87,142.97A1,1 89.03,0 1,132.45 142.99L112.31,123.54A1,1 80.48,0 1,112.29 122.13z" fill="#ffffff" fill-opacity="0.5"/>
  <path d="M666.13,656.97L666.13,656.97A1,1 88.59,0 1,667.55 656.94L687.69,676.4A1,1 88.59,0 1,687.71 677.81L687.71,677.81A1,1 88.59,0 1,686.3 677.83L666.16,658.38A1,1 88.59,0 1,666.13 656.97z" fill="#ffffff" fill-opacity="0.5"/>
  <path d="M102.77,132.34L102.77,132.34A1,1 86.86,0 1,104.18 132.26L124.99,151A1,1 121.32,0 1,125.06 152.41L125.06,152.41A1,1 121.32,0 1,123.65 152.48L102.84,133.75A1,1 86.86,0 1,102.77 132.34z" fill="#ffffff" fill-opacity="0.5"/>
  <path d="M674.94,647.52L674.94,647.52A1,1 87.07,0 1,676.35 647.45L697.16,666.19A1,1 87.07,0 1,697.23 667.6L697.23,667.6A1,1 87.07,0 1,695.82 667.67L675.01,648.94A1,1 87.07,0 1,674.94 647.52z" fill="#ffffff" fill-opacity="0.5"/>
  <path d="M93.61,142.87L93.61,142.87A1,1 115.43,0 1,95.02 142.75L116.46,160.75A1,1 59.13,0 1,116.59 162.16L116.59,162.16A1,1 59.13,0 1,115.18 162.28L93.73,144.28A1,1 115.43,0 1,93.61 142.87z" fill="#ffffff" fill-opacity="0.5"/>
  <path d="M683.41,637.78L683.41,637.78A1,1 85.16,0 1,684.82 637.65L706.27,655.65A1,1 85.16,0 1,706.39 657.06L706.39,657.06A1,1 85.16,0 1,704.98 657.19L683.53,639.19A1,1 85.16,0 1,683.41 637.78z" fill="#ffffff" fill-opacity="0.5"/>
  <path d="M84.82,153.72L84.82,153.72A1,1 83.12,0 1,86.22 153.55L108.29,170.79A1,1 72.84,0 1,108.46 172.19L108.46,172.19A1,1 72.84,0 1,107.06 172.36L84.99,155.13A1,1 83.12,0 1,84.82 153.72z" fill="#ffffff" fill-opacity="0.5"/>
  <path d="M691.54,627.74L691.54,627.74A1,1 83.21,0 1,692.94 627.57L715,644.81A1,1 83.21,0 1,715.18 646.21L715.18,646.21A1,1 83.21,0 1,713.77 646.39L691.71,629.15A1,1 83.21,0 1,691.54 627.74z" fill="#ffffff" fill-opacity="0.5"/>
  <path d="M76.42,164.87L76.42,164.87A1,1 64.57,0 1,77.82 164.65L100.47,181.11A1,1 126.75,0 1,100.69 182.51L100.69,182.51A1,1 126.75,0 1,99.29 182.73L76.64,166.27A1,1 64.57,0 1,76.42 164.87z" fill="#ffffff" fill-opacity="0.5"/>
  <path d="M699.31,617.43L699.31,617.43A1,1 80.91,0 1,700.71 617.21L723.36,633.67A1,1 80.91,0 1,723.58 635.06L723.58,635.06A1,1 80.91,0 1,722.18 635.28L699.53,618.83A1,1 80.91,0 1,699.31 617.43z" fill="#ffffff" fill-opacity="0.5"/>
  <path d="M68.41,176.31L68.41,176.31A1,1 79,0 1,69.8 176.04L93.01,191.7A1,1 79,0 1,93.28 193.08L93.28,193.08A1,1 79,0 1,91.89 193.35L68.68,177.7A1,1 79,0 1,68.41 176.31z" fill="#ffffff" fill-opacity="0.5"/>
  <path d="M706.72,606.85L706.72,606.85A1,1 79.41,0 1,708.1 606.58L731.32,622.24A1,1 79.41,0 1,731.59 623.63L731.59,623.63A1,1 79.41,0 1,730.2 623.9L706.99,608.24A1,1 79.41,0 1,706.72 606.85z" fill="#ffffff" fill-opacity="0.5"/>
  <path d="M60.81,188.02L60.81,188.02A1,1 116.94,0 1,62.19 187.7L85.93,202.54A1,1 89.65,0 1,86.25 203.91L86.25,203.91A1,1 89.65,0 1,84.87 204.23L61.13,189.39A1,1 116.94,0 1,60.81 188.02z" fill="#ffffff" fill-opacity="0.5"/>
  <path d="M713.75,596.02L713.75,596.02A1,1 76.92,0 1,715.13 595.7L738.87,610.54A1,1 76.92,0 1,739.19 611.92L739.19,611.92A1,1 76.92,0 1,737.81 612.24L714.07,597.4A1,1 76.92,0 1,713.75 596.02z" fill="#ffffff" fill-opacity="0.5"/>
  <path d="M53.62,199.98L53.62,199.98A1,1 119.39,0 1,54.98 199.62L79.23,213.62A1,1 75.01,0 1,79.6 214.98L79.6,214.98A1,1 75.01,0 1,78.23 215.35L53.98,201.35A1,1 119.39,0 1,53.62 199.98z" fill="#ffffff"/>
  <path d="M720.4,584.95L720.4,584.95A1,1 74.44,0 1,721.77 584.59L746.02,598.59A1,1 74.44,0 1,746.38 599.95L746.38,599.95A1,1 74.44,0 1,745.02 600.32L720.77,586.32A1,1 74.44,0 1,720.4 584.95z" fill="#ffffff"/>
  <path d="M46.85,212.19L46.85,212.19A1,1 72.99,0 1,48.2 211.78L72.92,224.93A1,1 59.9,0 1,73.34 226.28L73.34,226.28A1,1 59.9,0 1,71.98 226.69L47.26,213.55A1,1 72.99,0 1,46.85 212.19z" fill="#ffffff" fill-opacity="0.5"/>
  <path d="M726.66,573.66L726.66,573.66A1,1 73.45,0 1,728.01 573.24L752.74,586.39A1,1 73.45,0 1,753.15 587.74L753.15,587.74A1,1 73.45,0 1,751.8 588.15L727.07,575.01A1,1 73.45,0 1,726.66 573.66z" fill="#ffffff" fill-opacity="0.5"/>
  <path d="M40.51,224.63L40.51,224.63A1,1 70.45,0 1,41.85 224.17L67.01,236.45A1,1 70.45,0 1,67.47 237.78L67.47,237.78A1,1 70.45,0 1,66.14 238.24L40.97,225.97A1,1 70.45,0 1,40.51 224.63z" fill="#ffffff" fill-opacity="0.5"/>
  <path d="M732.52,562.15L732.52,562.15A1,1 70.99,0 1,733.86 561.69L759.03,573.97A1,1 70.99,0 1,759.49 575.3L759.49,575.3A1,1 70.99,0 1,758.15 575.76L732.98,563.49A1,1 70.99,0 1,732.52 562.15z" fill="#ffffff" fill-opacity="0.5"/>
  <path d="M34.61,237.29L34.61,237.29A1,1 120.79,0 1,35.93 236.78L61.51,248.17A1,1 133.08,0 1,62.02 249.49L62.02,249.49A1,1 133.08,0 1,60.7 249.99L35.12,238.61A1,1 120.79,0 1,34.61 237.29z" fill="#ffffff" fill-opacity="0.5"/>
  <path d="M737.98,550.45L737.98,550.45A1,1 68.77,0 1,739.3 549.94L764.88,561.33A1,1 68.77,0 1,765.39 562.65L765.39,562.65A1,1 68.77,0 1,764.07 563.16L738.49,551.77A1,1 68.77,0 1,737.98 550.45z" fill="#ffffff" fill-opacity="0.5"/>
  <path d="M29.16,250.14L29.16,250.14A1,1 67.6,0 1,30.46 249.58L56.42,260.07A1,1 83.87,0 1,56.97 261.38L56.97,261.38A1,1 83.87,0 1,55.67 261.93L29.71,251.44A1,1 67.6,0 1,29.16 250.14z" fill="#ffffff" fill-opacity="0.5"/>
  <path d="M743.03,538.56L743.03,538.56A1,1 66.89,0 1,744.33 538.01L770.29,548.5A1,1 66.89,0 1,770.84 549.8L770.84,549.8A1,1 66.89,0 1,769.54 550.35L743.58,539.86A1,1 66.89,0 1,743.03 538.56z" fill="#ffffff" fill-opacity="0.5"/>
  <path d="M24.15,263.17L24.15,263.17A1,1 105.05,0 1,25.43 262.57L51.75,272.15A1,1 64.99,0 1,52.34 273.43L52.34,273.43A1,1 64.99,0 1,51.06 274.03L24.75,264.45A1,1 105.05,0 1,24.15 263.17z" fill="#ffffff" fill-opacity="0.5"/>
  <path d="M747.66,526.5L747.66,526.5A1,1 65.02,0 1,748.94 525.91L775.25,535.48A1,1 65.02,0 1,775.85 536.77L775.85,536.77A1,1 65.02,0 1,774.56 537.36L748.25,527.79A1,1 65.02,0 1,747.66 526.5z" fill="#ffffff" fill-opacity="0.5"/>
  <path d="M19.61,276.37L19.61,276.37A1,1 52.42,0 1,20.87 275.73L47.5,284.38A1,1 98.22,0 1,48.14 285.64L48.14,285.64A1,1 98.22,0 1,46.88 286.28L20.25,277.63A1,1 52.42,0 1,19.61 276.37z" fill="#ffffff" fill-opacity="0.5"/>
  <path d="M751.86,514.29L751.86,514.29A1,1 63.43,0 1,753.12 513.65L779.75,522.31A1,1 63.43,0 1,780.39 523.57L780.39,523.57A1,1 63.43,0 1,779.13 524.21L752.5,515.55A1,1 63.43,0 1,751.86 514.29z" fill="#ffffff" fill-opacity="0.5"/>
  <path d="M15.53,289.72L15.53,289.72A1,1 75.75,0 1,16.76 289.04L43.68,296.75A1,1 61,0 1,44.36 297.99L44.36,297.99A1,1 54.9,0 1,43.13 298.68L16.21,290.96A1,1 111.88,0 1,15.53 289.72z" fill="#ffffff" fill-opacity="0.5"/>
  <path d="M755.63,501.94L755.63,501.94A1,1 60.96,0 1,756.87 501.26L783.79,508.98A1,1 60.96,0 1,784.47 510.21L784.47,510.21A1,1 60.96,0 1,783.24 510.9L756.32,503.18A1,1 60.96,0 1,755.63 501.94z" fill="#ffffff" fill-opacity="0.5"/>
  <path d="M11.91,303.21L11.91,303.21A1,1 54.12,0 1,13.12 302.48L40.29,309.25A1,1 54.12,0 1,41.02 310.46L41.02,310.46A1,1 54.12,0 1,39.81 311.19L12.64,304.42A1,1 54.12,0 1,11.91 303.21z" fill="#ffffff" fill-opacity="0.5"/>
  <path d="M758.98,489.47L758.98,489.47A1,1 59.36,0 1,760.19 488.74L787.36,495.52A1,1 59.36,0 1,788.09 496.73L788.09,496.73A1,1 59.36,0 1,786.87 497.46L759.71,490.68A1,1 59.36,0 1,758.98 489.47z" fill="#ffffff" fill-opacity="0.5"/>
  <path d="M8.77,316.81L8.77,316.81A1,1 57.03,0 1,9.96 316.04L37.35,321.86A1,1 57.04,0 1,38.12 323.05L38.12,323.05A1,1 57.04,0 1,36.93 323.82L9.54,317.99A1,1 57.03,0 1,8.77 316.81z" fill="#ffffff" fill-opacity="0.5"/>
  <path d="M761.88,476.89L761.88,476.89A1,1 57.05,0 1,763.07 476.12L790.46,481.94A1,1 57.05,0 1,791.23 483.13L791.23,483.13A1,1 57.05,0 1,790.04 483.9L762.65,478.07A1,1 57.05,0 1,761.88 476.89z" fill="#ffffff" fill-opacity="0.5"/>
  <path d="M6.11,330.51L6.11,330.51A1,1 52.26,0 1,7.27 329.7L34.84,334.56A1,1 54.94,0 1,35.65 335.72L35.65,335.72A1,1 54.94,0 1,34.49 336.53L6.92,331.67A1,1 52.26,0 1,6.11 330.51z" fill="#ffffff" fill-opacity="0.5"/>
  <path d="M764.35,464.21L764.35,464.21A1,1 55.3,0 1,765.51 463.4L793.08,468.26A1,1 55.3,0 1,793.89 469.42L793.89,469.42A1,1 55.3,0 1,792.73 470.23L765.16,465.37A1,1 55.3,0 1,764.35 464.21z" fill="#ffffff" fill-opacity="0.5"/>
  <path d="M3.92,344.3L3.92,344.3A1,1 68.65,0 1,5.05 343.45L32.78,347.35A1,1 87.56,0 1,33.63 348.48L33.63,348.48A1,1 50.41,0 1,32.5 349.33L4.77,345.43A1,1 52.84,0 1,3.92 344.3z" fill="#ffffff" fill-opacity="0.5"/>
  <path d="M766.37,451.46L766.37,451.46A1,1 52.99,0 1,767.5 450.61L795.22,454.5A1,1 52.99,0 1,796.07 455.63L796.07,455.63A1,1 52.99,0 1,794.94 456.48L767.22,452.59A1,1 52.99,0 1,766.37 451.46z" fill="#ffffff" fill-opacity="0.5"/>
  <path d="M2.22,358.16L2.22,358.16A1,1 50.84,0 1,3.32 357.27L31.17,360.2A1,1 75.75,0 1,32.06 361.3L32.06,361.3A1,1 106.75,0 1,30.96 362.19L3.11,359.26A1,1 78.95,0 1,2.22 358.16z" fill="#ffffff" fill-opacity="0.5"/>
  <path d="M767.94,438.64L767.94,438.64A1,1 51.21,0 1,769.04 437.75L796.89,440.68A1,1 51.21,0 1,797.78 441.78L797.78,441.78A1,1 51.21,0 1,796.68 442.67L768.83,439.74A1,1 51.21,0 1,767.94 438.64z" fill="#ffffff" fill-opacity="0.5"/>
  <path d="M1.01,372.07L1.01,372.07A1,1 48.64,0 1,2.07 371.14L30,373.09A1,1 48.64,0 1,30.93 374.16L30.93,374.16A1,1 48.64,0 1,29.87 375.09L1.93,373.13A1,1 48.64,0 1,1.01 372.07z" fill="#ffffff" fill-opacity="0.5"/>
  <path d="M769.07,425.77L769.07,425.77A1,1 49,0 1,770.13 424.85L798.06,426.8A1,1 49,0 1,798.99 427.87L798.99,427.87A1,1 49,0 1,797.93 428.8L769.99,426.84A1,1 49,0 1,769.07 425.77z" fill="#ffffff" fill-opacity="0.5"/>
  <path d="M0.27,386.01L0.27,386.01A1,1 72.25,0 1,1.31 385.04L29.29,386.02A1,1 75.79,0 1,30.26 387.06L30.26,387.06A1,1 75.79,0 1,29.22 388.02L1.24,387.04A1,1 72.25,0 1,0.27 386.01z" fill="#ffffff" fill-opacity="0.5"/>
  <path d="M769.74,412.88L769.74,412.88A1,1 47.33,0 1,770.78 411.91L798.76,412.89A1,1 47.33,0 1,799.72 413.93L799.72,413.93A1,1 47.33,0 1,798.69 414.89L770.71,413.91A1,1 47.33,0 1,769.74 412.88z" fill="#ffffff" fill-opacity="0.5"/>
  <path d="M0,400L0,400A2,2 0,0 1,2 398L28,398A2,2 0,0 1,30 400L30,400A2,2 0,0 1,28 402L2,402A2,2 0,0 1,0 400z" fill="#ffffff"/>
  <path d="M770,400L770,400A2,2 45,0 1,772 398L798,398A2,2 45,0 1,800 400L800,400A2,2 45,0 1,798 402L772,402A2,2 45,0 1,770 400z" fill="#ffffff"/>
  <path d="M0.27,413.93L0.27,413.93A1,1 105.4,0 1,1.24 412.89L29.22,411.91A1,1 133.97,0 1,30.26 412.88L30.26,412.88A1,1 133.97,0 1,29.29 413.91L1.31,414.89A1,1 105.4,0 1,0.27 413.93z" fill="#ffffff" fill-opacity="0.5"/>
  <path d="M769.74,387.06L769.74,387.06A1,1 133.37,0 1,770.71 386.02L798.69,385.05A1,1 133.37,0 1,799.72 386.01L799.72,386.01A1,1 133.37,0 1,798.76 387.04L770.78,388.02A1,1 133.37,0 1,769.74 387.06z" fill="#ffffff" fill-opacity="0.5"/>
  <path d="M1.01,427.87L1.01,427.87A1,1 131.31,0 1,1.93 426.8L29.87,424.85A1,1 131.31,0 1,30.93 425.77L30.93,425.77A1,1 131.31,0 1,30 426.84L2.07,428.8A1,1 131.31,0 1,1.01 427.87z" fill="#ffffff" fill-opacity="0.5"/>
  <path d="M769.07,374.16L769.07,374.16A1,1 131.04,0 1,769.99 373.09L797.92,371.14A1,1 131.04,0 1,798.99 372.07L798.99,372.07A1,1 131.04,0 1,798.06 373.14L770.13,375.09A1,1 131.04,0 1,769.07 374.16z" fill="#ffffff" fill-opacity="0.5"/>
  <path d="M2.22,441.78L2.22,441.78A1,1 128.74,0 1,3.11 440.68L30.96,437.75A1,1 129.04,0 1,32.06 438.64L32.06,438.64A1,1 128.74,0 1,31.17 439.74L3.32,442.67A1,1 128.74,0 1,2.22 441.78z" fill="#ffffff" fill-opacity="0.5"/>
  <path d="M767.94,361.29L767.94,361.29A1,1 129.31,0 1,768.83 360.2L796.68,357.27A1,1 129.31,0 1,797.78 358.16L797.78,358.16A1,1 129.31,0 1,796.89 359.26L769.04,362.18A1,1 129.31,0 1,767.94 361.29z" fill="#ffffff" fill-opacity="0.5"/>
  <path d="M3.92,455.63L3.92,455.63A1,1 126.43,0 1,4.77 454.5L32.5,450.61A1,1 78.37,0 1,33.63 451.46L33.63,451.46A1,1 78.37,0 1,32.78 452.59L5.05,456.48A1,1 126.43,0 1,3.92 455.63z" fill="#ffffff" fill-opacity="0.5"/>
  <path d="M766.37,348.48L766.37,348.48A1,1 127.02,0 1,767.22 347.35L794.94,343.45A1,1 127.02,0 1,796.07 344.3L796.07,344.3A1,1 127.02,0 1,795.22 345.43L767.5,349.33A1,1 127.02,0 1,766.37 348.48z" fill="#ffffff" fill-opacity="0.5"/>
  <path d="M6.11,469.42L6.11,469.42A1,1 56.97,0 1,6.92 468.26L34.49,463.4A1,1 124.92,0 1,35.65 464.21L35.65,464.21A1,1 124.92,0 1,34.84 465.37L7.27,470.23A1,1 56.97,0 1,6.11 469.42z" fill="#ffffff" fill-opacity="0.5"/>
  <path d="M764.35,335.72L764.35,335.72A1,1 125.4,0 1,765.16 334.56L792.73,329.7A1,1 125.4,0 1,793.89 330.52L793.89,330.52A1,1 125.4,0 1,793.08 331.67L765.5,336.53A1,1 125.4,0 1,764.35 335.72z" fill="#ffffff" fill-opacity="0.5"/>
  <path d="M8.77,483.12L8.77,483.12A1,1 76.23,0 1,9.54 481.94L36.93,476.12A1,1 122.95,0 1,38.12 476.89L38.12,476.89A1,1 122.95,0 1,37.35 478.07L9.96,483.9A1,1 76.23,0 1,8.77 483.12z" fill="#ffffff" fill-opacity="0.5"/>
  <path d="M761.88,323.05L761.88,323.05A1,1 123.09,0 1,762.65 321.86L790.04,316.04A1,1 123.09,0 1,791.23 316.81L791.23,316.81A1,1 123.09,0 1,790.46 318L763.07,323.82A1,1 123.09,0 1,761.88 323.05z" fill="#ffffff" fill-opacity="0.5"/>
  <path d="M11.91,496.73L11.91,496.73A1,1 120.99,0 1,12.64 495.52L39.81,488.74A1,1 72.5,0 1,41.02 489.47L41.02,489.47A1,1 72.5,0 1,40.29 490.68L13.12,497.46A1,1 120.99,0 1,11.91 496.73z" fill="#ffffff" fill-opacity="0.5"/>
  <path d="M758.98,310.46L758.98,310.46A1,1 121.34,0 1,759.71 309.25L786.87,302.48A1,1 121.34,0 1,788.09 303.21L788.09,303.21A1,1 121.34,0 1,787.36 304.42L760.19,311.19A1,1 121.34,0 1,758.98 310.46z" fill="#ffffff" fill-opacity="0.5"/>
  <path d="M15.53,510.21L15.53,510.21A1,1 133.79,0 1,16.21 508.98L43.13,501.26A1,1 122.22,0 1,44.36 501.94L44.36,501.94A1,1 122.22,0 1,43.68 503.18L16.76,510.9A1,1 133.79,0 1,15.53 510.21z" fill="#ffffff" fill-opacity="0.5"/>
  <path d="M755.63,297.99L755.63,297.99A1,1 119,0 1,756.32 296.75L783.24,289.04A1,1 119,0 1,784.47 289.72L784.47,289.72A1,1 119,0 1,783.79 290.96L756.87,298.68A1,1 119,0 1,755.63 297.99z" fill="#ffffff" fill-opacity="0.5"/>
  <path d="M19.61,523.56L19.61,523.56A1,1 109.88,0 1,20.25 522.3L46.88,513.65A1,1 117.01,0 1,48.14 514.29L48.14,514.29A1,1 117.01,0 1,47.5 515.55L20.87,524.21A1,1 109.88,0 1,19.61 523.56z" fill="#ffffff" fill-opacity="0.5"/>
  <path d="M751.86,285.64L751.86,285.64A1,1 117.21,0 1,752.5 284.38L779.13,275.73A1,1 117.21,0 1,780.39 276.37L780.39,276.37A1,1 117.21,0 1,779.75 277.63L753.12,286.28A1,1 117.21,0 1,751.86 285.64z" fill="#ffffff" fill-opacity="0.5"/>
  <path d="M24.15,536.76L24.15,536.76A1,1 108.78,0 1,24.75 535.48L51.06,525.91A1,1 78.66,0 1,52.34 526.5L52.34,526.5A1,1 78.66,0 1,51.75 527.79L25.43,537.36A1,1 108.78,0 1,24.15 536.76z" fill="#ffffff" fill-opacity="0.5"/>
  <path d="M747.65,273.43L747.65,273.43A1,1 114.94,0 1,748.25 272.15L774.56,262.57A1,1 114.94,0 1,775.85 263.17L775.85,263.17A1,1 114.94,0 1,775.25 264.45L748.94,274.03A1,1 114.94,0 1,747.65 273.43z" fill="#ffffff" fill-opacity="0.5"/>
  <path d="M29.16,549.8L29.16,549.8A1,1 98.04,0 1,29.71 548.5L55.67,538.01A1,1 56.75,0 1,56.97 538.56L56.97,538.56A1,1 56.75,0 1,56.42 539.86L30.46,550.35A1,1 98.04,0 1,29.16 549.8z" fill="#ffffff" fill-opacity="0.5"/>
  <path d="M743.03,261.37L743.03,261.37A1,1 113.32,0 1,743.58 260.07L769.54,249.59A1,1 113.32,0 1,770.84 250.14L770.84,250.14A1,1 113.32,0 1,770.29 251.44L744.33,261.93A1,1 113.32,0 1,743.03 261.37z" fill="#ffffff" fill-opacity="0.5"/>
  <path d="M34.61,562.65L34.61,562.65A1,1 124.29,0 1,35.12 561.33L60.7,549.94A1,1 110.97,0 1,62.02 550.45L62.02,550.45A1,1 110.97,0 1,61.51 551.77L35.93,563.16A1,1 124.29,0 1,34.61 562.65z" fill="#ffffff" fill-opacity="0.5"/>
  <path d="M737.98,249.49L737.98,249.49A1,1 110.88,0 1,738.49 248.17L764.07,236.78A1,1 110.88,0 1,765.39 237.29L765.39,237.29A1,1 110.88,0 1,764.88 238.61L739.3,249.99A1,1 110.88,0 1,737.98 249.49z" fill="#ffffff" fill-opacity="0.5"/>
  <path d="M40.51,575.3L40.51,575.3A1,1 112.76,0 1,40.97 573.96L66.14,561.69A1,1 89.02,0 1,67.47 562.15L67.47,562.15A1,1 89.02,0 1,67.01 563.49L41.85,575.76A1,1 112.76,0 1,40.51 575.3z" fill="#ffffff" fill-opacity="0.5"/>
  <path d="M732.52,237.78L732.52,237.78A1,1 109.01,0 1,732.98 236.45L758.15,224.17A1,1 109.01,0 1,759.49 224.63L759.49,224.63A1,1 109.01,0 1,759.03 225.97L733.86,238.24A1,1 109.01,0 1,732.52 237.78z" fill="#ffffff" fill-opacity="0.5"/>
  <path d="M46.85,587.74L46.85,587.74A1,1 106.99,0 1,47.26 586.39L71.98,573.24A1,1 83.48,0 1,73.34 573.66L73.34,573.66A1,1 83.48,0 1,72.92 575.01L48.2,588.15A1,1 106.99,0 1,46.85 587.74z" fill="#ffffff" fill-opacity="0.5"/>
  <path d="M726.66,226.28L726.66,226.28A1,1 107.4,0 1,727.07 224.93L751.8,211.78A1,1 107.4,0 1,753.15 212.2L753.15,212.2A1,1 107.4,0 1,752.74 213.55L728.01,226.69A1,1 107.4,0 1,726.66 226.28z" fill="#ffffff" fill-opacity="0.5"/>
  <path d="M53.62,599.95L53.62,599.95A1,1 133.97,0 1,53.98 598.58L78.23,584.58A1,1 118.57,0 1,79.6 584.95L79.6,584.95A1,1 118.57,0 1,79.23 586.32L54.98,600.32A1,1 133.97,0 1,53.62 599.95z" fill="#ffffff"/>
  <path d="M720.4,214.98L720.4,214.98A1,1 104.94,0 1,720.77 213.62L745.02,199.62A1,1 104.94,0 1,746.38 199.98L746.38,199.98A1,1 104.94,0 1,746.02 201.35L721.77,215.35A1,1 104.94,0 1,720.4 214.98z" fill="#ffffff"/>
  <path d="M60.81,611.92L60.81,611.92A1,1 123.15,0 1,61.12 610.54L84.87,595.7A1,1 46.91,0 1,86.25 596.02L86.25,596.02A1,1 46.91,0 1,85.93 597.4L62.18,612.24A1,1 123.15,0 1,60.81 611.92z" fill="#ffffff" fill-opacity="0.5"/>
  <path d="M713.75,203.91L713.75,203.91A1,1 103.07,0 1,714.07 202.54L737.81,187.7A1,1 103.07,0 1,739.19 188.02L739.19,188.02A1,1 103.07,0 1,738.87 189.4L715.13,204.23A1,1 103.07,0 1,713.75 203.91z" fill="#ffffff" fill-opacity="0.5"/>
  <path d="M68.41,623.63L68.41,623.63A1,1 74.6,0 1,68.68 622.24L91.89,606.58A1,1 87.95,0 1,93.28 606.85L93.28,606.85A1,1 87.95,0 1,93.01 608.24L69.8,623.9A1,1 74.6,0 1,68.41 623.63z" fill="#ffffff" fill-opacity="0.5"/>
  <path d="M706.72,193.08L706.72,193.08A1,1 101.18,0 1,706.99 191.7L730.2,176.04A1,1 101.18,0 1,731.59 176.31L731.59,176.31A1,1 101.18,0 1,731.32 177.7L708.1,193.35A1,1 101.18,0 1,706.72 193.08z" fill="#ffffff" fill-opacity="0.5"/>
  <path d="M76.42,635.06L76.42,635.06A1,1 68.63,0 1,76.64 633.67L99.29,617.21A1,1 81.65,0 1,100.69 617.43L100.69,617.43A1,1 81.65,0 1,100.47 618.83L77.81,635.28A1,1 68.63,0 1,76.42 635.06z" fill="#ffffff" fill-opacity="0.5"/>
  <path d="M699.31,182.51L699.31,182.51A1,1 98.7,0 1,699.53 181.11L722.18,164.65A1,1 98.7,0 1,723.58 164.87L723.58,164.87A1,1 98.7,0 1,723.36 166.27L700.71,182.73A1,1 98.7,0 1,699.31 182.51z" fill="#ffffff" fill-opacity="0.5"/>
  <path d="M84.82,646.21L84.82,646.21A1,1 114.1,0 1,84.99 644.81L107.06,627.57A1,1 55.7,0 1,108.46 627.74L108.46,627.74A1,1 55.7,0 1,108.29 629.15L86.22,646.38A1,1 114.1,0 1,84.82 646.21z" fill="#ffffff" fill-opacity="0.5"/>
  <path d="M691.54,172.19L691.54,172.19A1,1 97.17,0 1,691.71 170.79L713.77,153.55A1,1 97.17,0 1,715.18 153.72L715.18,153.72A1,1 97.17,0 1,715.01 155.13L692.94,172.36A1,1 97.17,0 1,691.54 172.19z" fill="#ffffff" fill-opacity="0.5"/>
  <path d="M93.61,657.06L93.61,657.06A1,1 85.48,0 1,93.73 655.65L115.18,637.66A1,1 95.03,0 1,116.59 637.78L116.59,637.78A1,1 95.03,0 1,116.46 639.19L95.01,657.19A1,1 85.48,0 1,93.61 657.06z" fill="#ffffff" fill-opacity="0.5"/>
  <path d="M683.41,162.16L683.41,162.16A1,1 95.28,0 1,683.53 160.75L704.98,142.75A1,1 95.28,0 1,706.39 142.87L706.39,142.87A1,1 95.28,0 1,706.27 144.28L684.82,162.28A1,1 95.28,0 1,683.41 162.16z" fill="#ffffff" fill-opacity="0.5"/>
  <path d="M102.76,667.6L102.76,667.6A1,1 81.01,0 1,102.84 666.19L123.65,647.45A1,1 105.08,0 1,125.06 647.52L125.06,647.52A1,1 105.08,0 1,124.99 648.94L104.18,667.67A1,1 81.01,0 1,102.76 667.6z" fill="#ffffff" fill-opacity="0.5"/>
  <path d="M674.94,152.41L674.94,152.41A1,1 93.32,0 1,675.01 151L695.82,132.26A1,1 93.32,0 1,697.23 132.34L697.23,132.34A1,1 93.32,0 1,697.16 133.75L676.35,152.48A1,1 93.32,0 1,674.94 152.41z" fill="#ffffff" fill-opacity="0.5"/>
  <path d="M112.29,677.81L112.29,677.81A1,1 84,0 1,112.31 676.39L132.45,656.94A1,1 46.4,0 1,133.87 656.97L133.87,656.97A1,1 46.4,0 1,133.84 658.38L113.7,677.83A1,1 84,0 1,112.29 677.81z" fill="#ffffff" fill-opacity="0.5"/>
  <path d="M666.13,142.97L666.13,142.97A1,1 90.98,0 1,666.16 141.55L686.3,122.1A1,1 90.98,0 1,687.71 122.13L687.71,122.13A1,1 90.98,0 1,687.69 123.54L667.55,142.99A1,1 90.98,0 1,666.13 142.97z" fill="#ffffff" fill-opacity="0.5"/>
  <path d="M122.16,687.68L122.16,687.68A1,1 94.07,0 1,122.13 686.27L141.58,666.12A1,1 75.79,0 1,143 666.1L143,666.1A1,1 75.79,0 1,143.02 667.51L123.57,687.66A1,1 94.07,0 1,122.16 687.68z" fill="#ffffff" fill-opacity="0.5"/>
  <path d="M657,133.83L657,133.83A1,1 88.59,0 1,656.97 132.42L676.43,112.28A1,1 88.59,0 1,677.84 112.26L677.84,112.26A1,1 88.59,0 1,677.86 113.67L658.41,133.81A1,1 88.59,0 1,657 133.83z" fill="#ffffff" fill-opacity="0.5"/>
  <path d="M132.37,697.2L132.37,697.2A1,1 87.01,0 1,132.29 695.79L151.03,674.98A1,1 86.98,0 1,152.44 674.91L152.44,674.91A1,1 86.98,0 1,152.52 676.32L133.78,697.13A1,1 87.01,0 1,132.37 697.2z" fill="#ffffff" fill-opacity="0.5"/>
  <path d="M647.56,125.03L647.56,125.03A1,1 87.07,0 1,647.48 123.62L666.22,102.81A1,1 87.07,0 1,667.63 102.73L667.63,102.73A1,1 87.07,0 1,667.7 104.15L648.97,124.95A1,1 87.07,0 1,647.56 125.03z" fill="#ffffff" fill-opacity="0.5"/>
  <path d="M142.9,706.36L142.9,706.36A1,1 84.95,0 1,142.78 704.95L160.78,683.5A1,1 75.85,0 1,162.19 683.38L162.19,683.38A1,1 75.85,0 1,162.31 684.79L144.31,706.24A1,1 84.95,0 1,142.9 706.36z" fill="#ffffff" fill-opacity="0.5"/>
  <path d="M637.81,116.56L637.81,116.56A1,1 85.16,0 1,637.69 115.15L655.68,93.7A1,1 85.16,0 1,657.09 93.57L657.09,93.57A1,1 85.16,0 1,657.22 94.98L639.22,116.43A1,1 85.16,0 1,637.81 116.56z" fill="#ffffff" fill-opacity="0.5"/>
  <path d="M153.75,715.15L153.75,715.15A1,1 83.01,0 1,153.58 713.74L170.82,691.68A1,1 94.34,0 1,172.22 691.51L172.22,691.51A1,1 94.34,0 1,172.4 692.91L155.16,714.97A1,1 83.01,0 1,153.75 715.15z" fill="#ffffff" fill-opacity="0.5"/>
  <path d="M627.77,108.43L627.77,108.43A1,1 83.21,0 1,627.6 107.02L644.84,84.96A1,1 83.21,0 1,646.24 84.79L646.24,84.79A1,1 83.21,0 1,646.42 86.19L629.18,108.26A1,1 83.21,0 1,627.77 108.43z" fill="#ffffff" fill-opacity="0.5"/>
  <path d="M164.9,723.55L164.9,723.55A1,1 111.39,0 1,164.68 722.15L181.14,699.5A1,1 81.03,0 1,182.54 699.28L182.54,699.28A1,1 81.03,0 1,182.76 700.67L166.3,723.33A1,1 111.39,0 1,164.9 723.55z" fill="#ffffff" fill-opacity="0.5"/>
  <path d="M617.46,100.66L617.46,100.66A1,1 80.91,0 1,617.24 99.26L633.7,76.61A1,1 80.91,0 1,635.09 76.39L635.09,76.39A1,1 80.91,0 1,635.32 77.78L618.86,100.44A1,1 80.91,0 1,617.46 100.66z" fill="#ffffff" fill-opacity="0.5"/>
  <path d="M176.34,731.56L176.34,731.56A1,1 79.03,0 1,176.07 730.17L191.73,706.95A1,1 51.11,0 1,193.11 706.68L193.11,706.68A1,1 51.11,0 1,193.38 708.07L177.73,731.29A1,1 79.03,0 1,176.34 731.56z" fill="#ffffff" fill-opacity="0.5"/>
  <path d="M606.88,93.25L606.88,93.25A1,1 79.41,0 1,606.61 91.86L622.27,68.65A1,1 79.41,0 1,623.66 68.38L623.66,68.38A1,1 79.41,0 1,623.93 69.77L608.27,92.98A1,1 79.41,0 1,606.88 93.25z" fill="#ffffff" fill-opacity="0.5"/>
  <path d="M188.05,739.16L188.05,739.16A1,1 80.24,0 1,187.73 737.78L202.57,714.04A1,1 89.44,0 1,203.95 713.72L203.95,713.72A1,1 89.44,0 1,204.26 715.1L189.43,738.84A1,1 80.24,0 1,188.05 739.16z" fill="#ffffff" fill-opacity="0.5"/>
  <path d="M596.05,86.22L596.05,86.22A1,1 76.92,0 1,595.73 84.84L610.57,61.09A1,1 76.92,0 1,611.95 60.78L611.95,60.78A1,1 76.92,0 1,612.27 62.15L597.43,85.9A1,1 76.92,0 1,596.05 86.22z" fill="#ffffff" fill-opacity="0.5"/>
  <path d="M200.01,746.35L200.01,746.35A1,1 79.24,0 1,199.65 744.98L213.65,720.74A1,1 79.24,0 1,215.01 720.37L215.01,720.37A1,1 79.24,0 1,215.38 721.74L201.38,745.98A1,1 79.24,0 1,200.01 746.35z" fill="#ffffff"/>
  <path d="M584.98,79.57L584.98,79.57A1,1 74.44,0 1,584.62 78.2L598.62,53.95A1,1 74.44,0 1,599.98 53.59L599.98,53.59A1,1 74.44,0 1,600.35 54.95L586.35,79.2A1,1 74.44,0 1,584.98 79.57z" fill="#ffffff"/>
  <path d="M212.23,753.12L212.23,753.12A1,1 91.95,0 1,211.81 751.77L224.96,727.04A1,1 91.95,0 1,226.31 726.63L226.31,726.63A1,1 91.95,0 1,226.72 727.98L213.58,752.7A1,1 91.95,0 1,212.23 753.12z" fill="#ffffff" fill-opacity="0.5"/>
  <path d="M573.69,73.31L573.69,73.31A1,1 73.45,0 1,573.27 71.95L586.42,47.23A1,1 73.45,0 1,587.77 46.82L587.77,46.82A1,1 73.45,0 1,588.19 48.17L575.04,72.89A1,1 73.45,0 1,573.69 73.31z" fill="#ffffff" fill-opacity="0.5"/>
  <path d="M224.66,759.46L224.66,759.46A1,1 74.62,0 1,224.2 758.12L236.48,732.95A1,1 47.57,0 1,237.82 732.49L237.82,732.49A1,1 47.57,0 1,238.28 733.83L226,759A1,1 74.62,0 1,224.66 759.46z" fill="#ffffff" fill-opacity="0.5"/>
  <path d="M562.18,67.44L562.18,67.44A1,1 70.99,0 1,561.72 66.11L574,40.94A1,1 70.99,0 1,575.33 40.48L575.33,40.48A1,1 70.99,0 1,575.79 41.82L563.52,66.98A1,1 70.99,0 1,562.18 67.44z" fill="#ffffff" fill-opacity="0.5"/>
  <path d="M237.32,765.36L237.32,765.36A1,1 62.48,0 1,236.81 764.04L248.2,738.46A1,1 113.92,0 1,249.52 737.95L249.52,737.95A1,1 113.92,0 1,250.03 739.27L238.64,764.85A1,1 62.48,0 1,237.32 765.36z" fill="#ffffff" fill-opacity="0.5"/>
  <path d="M550.48,61.98L550.48,61.98A1,1 68.77,0 1,549.97 60.66L561.36,35.09A1,1 68.77,0 1,562.68 34.58L562.68,34.58A1,1 68.77,0 1,563.19 35.9L551.8,61.48A1,1 68.77,0 1,550.48 61.98z" fill="#ffffff" fill-opacity="0.5"/>
  <path d="M250.17,770.81L250.17,770.81A1,1 67.05,0 1,249.62 769.51L260.1,743.55A1,1 67.05,0 1,261.41 743L261.41,743A1,1 67.05,0 1,261.96 744.3L251.47,770.26A1,1 67.05,0 1,250.17 770.81z" fill="#ffffff" fill-opacity="0.5"/>
  <path d="M538.59,56.94L538.59,56.94A1,1 66.89,0 1,538.04 55.64L548.53,29.68A1,1 66.89,0 1,549.83 29.12L549.83,29.12A1,1 66.89,0 1,550.38 30.43L539.89,56.39A1,1 66.89,0 1,538.59 56.94z" fill="#ffffff" fill-opacity="0.5"/>
  <path d="M263.2,775.81L263.2,775.81A1,1 65.01,0 1,262.6 774.53L272.18,748.22A1,1 65.01,0 1,273.46 747.62L273.46,747.62A1,1 65.01,0 1,274.06 748.9L264.48,775.22A1,1 65.01,0 1,263.2 775.81z" fill="#ffffff" fill-opacity="0.5"/>
  <path d="M526.54,52.31L526.54,52.31A1,1 65.02,0 1,525.94 51.03L535.52,24.72A1,1 65.02,0 1,536.8 24.12L536.8,24.12A1,1 65.02,0 1,537.39 25.4L527.82,51.71A1,1 65.02,0 1,526.54 52.31z" fill="#ffffff" fill-opacity="0.5"/>
  <path d="M276.4,780.36L276.4,780.36A1,1 63,0 1,275.76 779.1L284.41,752.47A1,1 107.2,0 1,285.67 751.83L285.67,751.83A1,1 107.2,0 1,286.31 753.09L277.66,779.72A1,1 63,0 1,276.4 780.36z" fill="#ffffff" fill-opacity="0.5"/>
  <path d="M514.32,48.11L514.32,48.11A1,1 63.43,0 1,513.68 46.85L522.34,20.22A1,1 63.43,0 1,523.6 19.58L523.6,19.58A1,1 63.43,0 1,524.24 20.84L515.59,47.47A1,1 63.43,0 1,514.32 48.11z" fill="#ffffff" fill-opacity="0.5"/>
  <path d="M289.75,784.44L289.75,784.44A1,1 59.64,0 1,289.07 783.2L296.78,756.29A1,1 61.07,0 1,298.02 755.6L298.02,755.6A1,1 61.07,0 1,298.71 756.84L290.99,783.76A1,1 59.64,0 1,289.75 784.44z" fill="#ffffff" fill-opacity="0.5"/>
  <path d="M501.98,44.33L501.98,44.33A1,1 60.96,0 1,501.29 43.09L509.01,16.18A1,1 60.96,0 1,510.25 15.49L510.25,15.49A1,1 60.96,0 1,510.93 16.73L503.21,43.65A1,1 60.96,0 1,501.98 44.33z" fill="#ffffff" fill-opacity="0.5"/>
  <path d="M303.24,788.06L303.24,788.06A1,1 94.39,0 1,302.51 786.84L309.28,759.67A1,1 59.08,0 1,310.5 758.95L310.5,758.95A1,1 59.08,0 1,311.22 760.16L304.45,787.33A1,1 94.39,0 1,303.24 788.06z" fill="#ffffff" fill-opacity="0.5"/>
  <path d="M489.5,40.99L489.5,40.99A1,1 59.36,0 1,488.77 39.78L495.55,12.61A1,1 59.36,0 1,496.76 11.88L496.76,11.88A1,1 59.36,0 1,497.49 13.09L490.71,40.26A1,1 59.36,0 1,489.5 40.99z" fill="#ffffff" fill-opacity="0.5"/>
  <path d="M316.84,791.2L316.84,791.2A1,1 57,0 1,316.07 790.01L321.89,762.62A1,1 57.05,0 1,323.08 761.85L323.08,761.85A1,1 57.05,0 1,323.85 763.04L318.03,790.42A1,1 57,0 1,316.84 791.2z" fill="#ffffff" fill-opacity="0.5"/>
  <path d="M476.92,38.08L476.92,38.08A1,1 57.05,0 1,476.15 36.9L481.97,9.51A1,1 57.05,0 1,483.16 8.74L483.16,8.74A1,1 57.05,0 1,483.93 9.93L478.1,37.31A1,1 57.05,0 1,476.92 38.08z" fill="#ffffff" fill-opacity="0.5"/>
  <path d="M330.54,793.86L330.54,793.86A1,1 53.57,0 1,329.73 792.7L334.6,765.13A1,1 52.88,0 1,335.75 764.32L335.75,764.32A1,1 52.88,0 1,336.56 765.47L331.7,793.05A1,1 53.57,0 1,330.54 793.86z" fill="#ffffff" fill-opacity="0.5"/>
  <path d="M464.24,35.62L464.24,35.62A1,1 55.3,0 1,463.43 34.46L468.29,6.89A1,1 55.3,0 1,469.45 6.08L469.45,6.08A1,1 55.3,0 1,470.26 7.24L465.4,34.81A1,1 55.3,0 1,464.24 35.62z" fill="#ffffff" fill-opacity="0.5"/>
  <path d="M344.33,796.04L344.33,796.04A1,1 53,0 1,343.48 794.91L347.38,767.19A1,1 52.95,0 1,348.51 766.33L348.51,766.33A1,1 52.95,0 1,349.36 767.46L345.46,795.19A1,1 53,0 1,344.33 796.04z" fill="#ffffff" fill-opacity="0.5"/>
  <path d="M451.49,33.6L451.49,33.6A1,1 52.99,0 1,450.64 32.47L454.53,4.74A1,1 52.99,0 1,455.66 3.89L455.66,3.89A1,1 52.99,0 1,456.52 5.02L452.62,32.75A1,1 52.99,0 1,451.49 33.6z" fill="#ffffff" fill-opacity="0.5"/>
  <path d="M358.19,797.74L358.19,797.74A1,1 48.53,0 1,357.3 796.65L360.23,768.8A1,1 95.86,0 1,361.33 767.91L361.33,767.91A1,1 95.86,0 1,362.22 769.01L359.29,796.85A1,1 48.53,0 1,358.19 797.74z" fill="#ffffff" fill-opacity="0.5"/>
  <path d="M438.67,32.03L438.67,32.03A1,1 51.21,0 1,437.78 30.93L440.71,3.08A1,1 51.21,0 1,441.81 2.19L441.81,2.19A1,1 51.21,0 1,442.7 3.29L439.77,31.14A1,1 51.21,0 1,438.67 32.03z" fill="#ffffff" fill-opacity="0.5"/>
  <path d="M372.1,798.96L372.1,798.96A1,1 48.32,0 1,371.17 797.89L373.12,769.96A1,1 48.32,0 1,374.19 769.03L374.19,769.03A1,1 48.32,0 1,375.12 770.1L373.17,798.03A1,1 48.32,0 1,372.1 798.96z" fill="#ffffff" fill-opacity="0.5"/>
  <path d="M425.81,30.9L425.81,30.9A1,1 49,0 1,424.88 29.83L426.83,1.9A1,1 49,0 1,427.9 0.97L427.9,0.97A1,1 49,0 1,428.83 2.04L426.87,29.97A1,1 49,0 1,425.81 30.9z" fill="#ffffff" fill-opacity="0.5"/>
  <path d="M386.04,799.69L386.04,799.69A1,1 77.77,0 1,385.08 798.66L386.05,770.67A1,1 46.42,0 1,387.09 769.71L387.09,769.71A1,1 46.42,0 1,388.05 770.74L387.07,798.73A1,1 77.77,0 1,386.04 799.69z" fill="#ffffff" fill-opacity="0.5"/>
  <path d="M412.91,30.23L412.91,30.23A1,1 47.33,0 1,411.95 29.19L412.92,1.21A1,1 47.33,0 1,413.96 0.24L413.96,0.24A1,1 47.33,0 1,414.92 1.28L413.94,29.26A1,1 47.33,0 1,412.91 30.23z" fill="#ffffff" fill-opacity="0.5"/>
  <path d="M736.64,385.77C736.64,381.17 733,376.69 727.4,376.69C722.28,376.69 718.92,380.69 718.92,384.89C718.92,385.73 719.08,386.57 719.4,387.41L707.96,380.57L707.96,385.21L720.92,392.81C723.4,394.25 725.32,394.89 727.56,394.89C732.72,394.89 736.64,390.61 736.64,385.77ZM722.48,385.77C722.48,382.93 724.72,380.69 727.64,380.69C730.44,380.69 732.76,382.93 732.76,385.77C732.76,388.57 730.44,390.89 727.56,390.89C724.72,390.89 722.48,388.57 722.48,385.77ZM727.2,415.86C733.04,415.66 736.64,412.26 736.64,407.18C736.64,401.94 733.04,398.5 727.2,398.34C723.88,398.26 719.88,398.26 716.96,398.34C711.12,398.54 707.52,401.98 707.52,407.18C707.52,412.3 711.12,415.7 716.96,415.86C720.28,415.94 724.28,415.94 727.2,415.86ZM716.92,411.7C713.52,411.58 711.6,409.9 711.6,407.18C711.6,404.3 713.52,402.62 716.92,402.5C720.56,402.34 724.44,402.34 727.24,402.5C730.64,402.66 732.56,404.38 732.56,407.18C732.56,409.86 730.64,411.5 727.24,411.7C724.44,411.9 720.56,411.86 716.92,411.7Z" fill="#ffffff" fill-opacity="0.9"/>
  <path d="M409.05,74.04C408.85,68.2 405.45,64.6 400.37,64.6C395.13,64.6 391.69,68.2 391.53,74.04C391.45,77.36 391.45,81.36 391.53,84.28C391.73,90.12 395.17,93.72 400.37,93.72C405.49,93.72 408.89,90.12 409.05,84.28C409.13,80.96 409.13,76.96 409.05,74.04ZM404.89,84.32C404.77,87.72 403.09,89.64 400.37,89.64C397.49,89.64 395.81,87.72 395.69,84.32C395.53,80.68 395.53,76.8 395.69,74C395.85,70.6 397.57,68.68 400.37,68.68C403.05,68.68 404.69,70.6 404.89,74C405.09,76.8 405.05,80.68 404.89,84.32Z" fill="#ffffff" fill-opacity="0.9"/>
  <path d="M420.28,733.95L427.48,731.83L427.48,727.83L421.56,729.55L421.56,705.95L417.48,705.95L417.48,733.95L420.28,733.95ZM395.35,721.03C393.43,722.35 392.11,724.43 392.11,727.03C392.11,731.35 395.51,734.63 400.15,734.63C404.83,734.63 408.27,731.35 408.27,727.03C408.27,724.43 406.95,722.35 405.03,721.03C407.55,719.63 409.23,717.11 409.23,713.91C409.23,709.15 405.43,705.55 400.15,705.55C394.95,705.55 391.15,709.15 391.15,713.91C391.15,717.11 392.87,719.63 395.35,721.03ZM400.15,730.87C397.75,730.87 395.95,729.15 395.95,726.87C395.95,724.55 397.75,722.75 400.15,722.75C402.63,722.75 404.43,724.55 404.43,726.87C404.43,729.15 402.63,730.87 400.15,730.87ZM400.15,709.39C403.07,709.39 405.27,711.43 405.27,714.15C405.27,716.91 403.07,719.03 400.15,719.03C397.27,719.03 395.11,716.91 395.11,714.15C395.15,711.43 397.31,709.39 400.15,709.39ZM370.22,725.19C370.42,731.03 373.82,734.63 378.9,734.63C384.14,734.63 387.58,731.03 387.74,725.19C387.82,721.87 387.82,717.87 387.74,714.95C387.54,709.11 384.1,705.51 378.9,705.51C373.78,705.51 370.38,709.11 370.22,714.95C370.14,718.27 370.14,722.27 370.22,725.19ZM374.38,714.91C374.5,711.51 376.18,709.59 378.9,709.59C381.78,709.59 383.46,711.51 383.58,714.91C383.74,718.55 383.74,722.43 383.58,725.23C383.42,728.63 381.7,730.55 378.9,730.55C376.22,730.55 374.58,728.63 374.38,725.23C374.18,722.43 374.22,718.55 374.38,714.91Z" fill="#ffffff" fill-opacity="0.9"/>
  <path d="M81.06,415.65C78.34,413.41 76.1,412.01 73.26,412.01C68.78,412.01 65.46,415.57 65.46,420.25C65.46,425.09 68.66,428.73 73.98,428.73L73.98,424.65C71.14,424.65 69.42,422.61 69.42,420.25C69.42,417.77 71.1,416.05 73.3,416.05C75.1,416.05 76.38,416.85 78.46,418.53L90.66,428.45L93.78,428.45L93.78,412.21L89.94,412.21L89.94,423.05L81.06,415.65ZM66.1,407.96L70.02,407.96L70.02,395L94.1,405.44L94.1,401.04L68.94,390.2L66.1,390.2L66.1,407.96ZM74.86,369.23C69.02,369.43 65.42,372.83 65.42,377.91C65.42,383.15 69.02,386.59 74.86,386.75C78.18,386.83 82.18,386.83 85.1,386.75C90.94,386.55 94.54,383.11 94.54,377.91C94.54,372.79 90.94,369.39 85.1,369.23C81.78,369.15 77.78,369.15 74.86,369.23ZM85.14,373.39C88.54,373.51 90.46,375.19 90.46,377.91C90.46,380.79 88.54,382.47 85.14,382.59C81.5,382.75 77.62,382.75 74.82,382.59C71.42,382.43 69.5,380.71 69.5,377.91C69.5,375.23 71.42,373.59 74.82,373.39C77.62,373.19 81.5,373.23 85.14,373.39Z" fill="#ffffff" fill-opacity="0.9"/>
  <path d="M676.99,227.76C676.37,226.69 675.57,225.86 674.74,225.23L687.62,225.69L685.9,222.71L671.08,222.4C668.08,222.33 666.15,222.75 664.18,223.89C659.81,226.41 658.42,231.93 661,236.39C663.52,240.76 669.07,242.13 673.57,239.53C677.9,237.03 679.05,231.33 676.99,227.76ZM663.46,234.88C661.74,231.9 662.79,228.06 665.74,226.36C668.72,224.64 672.47,225.71 674.19,228.68C675.89,231.63 674.85,235.42 671.94,237.1C668.99,238.8 665.2,237.9 663.46,234.88ZM692.41,252.64C697.84,249.32 699.36,244.75 696.76,240.24C694.14,235.71 689.4,234.7 683.81,237.74C681.28,239.11 678.37,240.79 675.91,242.3C670.48,245.62 668.99,250.23 671.61,254.76C674.21,259.27 678.92,260.24 684.51,257.2C687.05,255.83 689.96,254.15 692.41,252.64ZM682.89,254.71C678.97,256.79 675.82,256.3 674.1,253.32C672.36,250.31 673.49,247.3 677.25,244.94C680.14,243.14 683.15,241.4 685.43,240.22C689.37,238.18 692.58,238.77 694.26,241.68C695.94,244.59 694.81,247.6 691.07,249.99C688.91,251.38 685.9,253.12 682.89,254.71Z" fill="#ffffff" fill-opacity="0.5"/>
  <path d="M121.85,580.41C118.1,579.75 115.4,579.79 113.04,581.15C109.23,583.35 108.24,588.03 110.56,592.05C112.72,595.79 117.09,597.75 121.66,595.11L120.18,592.55C117.23,594.25 114.33,592.83 113.06,590.61C111.47,587.87 112.25,584.98 114.5,583.68C116.65,582.44 118.72,582.82 121.78,583.31L137.49,585.97L139.15,585.01L131.01,570.91L128.59,572.31L134.53,582.6L121.85,580.41ZM112.8,555.13L114.58,558.22L97.47,568.1L98.79,570.38L123.71,571.47L125.06,570.69L118.5,559.33L123.18,556.63L121.72,554.1L117.04,556.8L115.26,553.71L112.8,555.13ZM120.65,568.57L103.51,567.84L105.46,566.81L116.09,560.67L120.65,568.57ZM93.72,542.95C88.29,546.27 86.77,550.84 89.37,555.35C91.99,559.89 96.73,560.89 102.32,557.85C104.85,556.48 107.76,554.8 110.21,553.29C115.64,549.97 117.14,545.36 114.52,540.83C111.92,536.32 107.2,535.35 101.61,538.39C99.08,539.77 96.17,541.45 93.72,542.95ZM103.23,540.88C107.16,538.8 110.31,539.29 112.03,542.27C113.76,545.28 112.64,548.29 108.87,550.65C105.99,552.45 102.97,554.19 100.7,555.37C96.75,557.41 93.54,556.82 91.86,553.91C90.18,551 91.31,547.99 95.06,545.6C97.21,544.21 100.23,542.47 103.23,540.88Z" fill="#ffffff" fill-opacity="0.5"/>
  <path d="M563.6,108.71L552.64,112.57C556.66,115.13 557.7,120.03 555.5,123.93C552.88,128.56 547.39,129.73 543.35,127.45C539.73,125.4 538.22,121.56 539.12,117.06L541.92,117.54C541.28,120.95 542.43,123.71 544.73,125.01C547.34,126.49 551.17,125.81 552.99,122.52C554.81,119.22 553.21,114.41 547.71,113.32L547.66,111.46L559.52,107.23L549.53,101.58L550.93,99.11L564.65,106.87L563.6,108.71ZM579.04,125.72C582.03,120.1 581.02,115.39 576.49,112.83C571.93,110.25 567.34,111.79 564.07,117.25C562.58,119.72 560.93,122.64 559.58,125.19C556.59,130.8 557.64,135.53 562.2,138.11C566.72,140.67 571.28,139.11 574.55,133.65C576.04,131.19 577.69,128.26 579.04,125.72ZM571.9,132.34C569.57,136.12 566.61,137.3 563.61,135.6C560.58,133.89 560.03,130.73 562.08,126.78C563.65,123.76 565.36,120.74 566.72,118.57C569.09,114.8 572.15,113.69 575.08,115.34C578,117 578.55,120.16 576.54,124.12C575.39,126.41 573.67,129.44 571.9,132.34Z" fill="#ffffff" fill-opacity="0.5"/>
  <path d="M257.8,697.89C254.23,699.2 251.9,700.58 250.54,702.94C248.34,706.75 249.83,711.3 253.85,713.62C257.59,715.78 262.35,715.29 264.99,710.72L262.42,709.24C260.72,712.19 257.5,712.41 255.29,711.13C252.55,709.55 251.77,706.65 253.07,704.4C254.31,702.25 256.29,701.54 259.19,700.45L274.13,694.89L275.09,693.23L260.99,685.09L259.59,687.51L269.88,693.45L257.8,697.89ZM233.96,701.4L241.5,703.22L242.98,700.65L236.63,699.1L248.96,677.73L246.44,676.27L232.44,700.52L233.96,701.4ZM214.71,679.52C211.67,685.11 212.64,689.83 217.14,692.43C221.68,695.05 226.29,693.55 229.6,688.12C231.11,685.67 232.79,682.76 234.16,680.22C237.21,674.64 236.2,669.9 231.66,667.28C227.16,664.68 222.59,666.2 219.27,671.63C217.76,674.08 216.08,676.99 214.71,679.52ZM221.91,672.97C224.27,669.2 227.24,668.05 230.22,669.77C233.24,671.51 233.76,674.68 231.68,678.61C230.09,681.61 228.35,684.63 226.96,686.78C224.57,690.53 221.49,691.61 218.58,689.93C215.67,688.26 215.15,685.09 217.19,681.14C218.37,678.86 220.11,675.85 221.91,672.97Z" fill="#ffffff" fill-opacity="0.5"/>
  <path d="M230.72,113.63L228.34,125.01C232.61,122.89 237.34,124.55 239.53,128.46C242.13,133.1 240.28,138.4 236.24,140.67C232.6,142.7 228.54,141.99 225.16,138.9L227.02,136.75C229.6,139.06 232.56,139.51 234.87,138.23C237.48,136.76 238.89,133.13 237.02,129.87C235.15,126.61 230.2,125.48 226.42,129.61L224.8,128.69L227.34,116.35L217.32,121.96L215.94,119.49L229.69,111.78L230.72,113.63ZM249.23,103.27L246.84,114.65C251.11,112.53 255.85,114.19 258.04,118.1C260.64,122.74 258.79,128.04 254.74,130.3C251.11,132.34 247.05,131.63 243.66,128.53L245.53,126.38C248.11,128.7 251.07,129.15 253.37,127.86C255.99,126.39 257.4,122.76 255.52,119.5C253.65,116.24 248.71,115.11 244.93,119.25L243.31,118.32L245.85,105.99L235.83,111.6L234.44,109.12L248.19,101.42L249.23,103.27ZM271.78,98.89C268.53,93.42 263.98,91.85 259.44,94.39C254.87,96.95 253.8,101.67 256.77,107.3C258.11,109.85 259.75,112.78 261.23,115.26C264.47,120.73 269.06,122.29 273.63,119.72C278.17,117.18 279.2,112.48 276.23,106.85C274.9,104.3 273.25,101.37 271.78,98.89ZM273.73,108.44C275.76,112.39 275.23,115.53 272.22,117.21C269.19,118.91 266.2,117.75 263.89,113.95C262.12,111.04 260.42,108 259.27,105.71C257.28,101.74 257.92,98.54 260.85,96.9C263.78,95.26 266.77,96.43 269.12,100.2C270.47,102.38 272.17,105.41 273.73,108.44Z" fill="#ffffff" fill-opacity="0.5"/>
  <path d="M587.34,678.54L592.69,672.91L591.21,670.35L586.69,675.08L574.35,653.71L571.82,655.17L585.82,679.42L587.34,678.54ZM565.8,679.57C567.19,678.77 568.44,677.58 569.33,676.24L572.47,683.85L562.77,689.45L564.19,691.91L576.18,684.98L570.64,671.88L568.57,671.64C568,673.77 566.56,675.85 564.69,676.93C561.68,678.67 558.14,677.66 556.28,674.44C554.46,671.29 555.53,667.39 558.41,665.73C560.91,664.29 564.05,664.78 566.53,666.91L568.18,664.8C565.14,661.71 560.8,661.07 557.13,663.19C552.7,665.75 551.19,671.38 553.79,675.88C556.47,680.52 561.44,682.09 565.8,679.57ZM540.4,694.88C543.72,700.31 548.29,701.83 552.79,699.22C557.33,696.6 558.34,691.87 555.3,686.28C553.93,683.74 552.25,680.84 550.74,678.38C547.42,672.95 542.81,671.46 538.28,674.08C533.77,676.67 532.8,681.39 535.84,686.98C537.21,689.52 538.89,692.42 540.4,694.88ZM538.33,685.36C536.24,681.44 536.74,678.29 539.72,676.57C542.73,674.83 545.74,675.96 548.09,679.72C549.9,682.61 551.64,685.62 552.81,687.9C554.86,691.84 554.27,695.05 551.35,696.73C548.45,698.41 545.44,697.28 543.04,693.54C541.66,691.38 539.92,688.37 538.33,685.36Z" fill="#ffffff" fill-opacity="0.5"/>
  <path d="M106.88,242.28L110.33,253.38C113.03,249.45 117.97,248.59 121.79,250.94C126.32,253.73 127.29,259.25 124.86,263.21C122.68,266.75 118.79,268.11 114.32,267.05L114.91,264.27C118.29,265.03 121.09,263.99 122.47,261.74C124.05,259.18 123.5,255.33 120.28,253.39C117.06,251.46 112.19,252.88 110.9,258.33L109.04,258.31L105.25,246.3L99.23,256.08L96.81,254.6L105.07,241.17L106.88,242.28ZM124.44,227.48C118.94,224.28 114.19,225.12 111.47,229.55C108.72,234.01 110.09,238.66 115.43,242.13C117.84,243.71 120.7,245.46 123.19,246.91C128.69,250.1 133.46,249.23 136.2,244.76C138.93,240.34 137.54,235.72 132.21,232.26C129.79,230.68 126.93,228.92 124.44,227.48ZM130.79,234.86C134.49,237.32 135.55,240.33 133.75,243.26C131.93,246.22 128.74,246.66 124.88,244.47C121.92,242.79 118.96,240.97 116.84,239.52C113.16,237.03 112.16,233.92 113.92,231.06C115.68,228.2 118.86,227.76 122.75,229.91C124.99,231.15 127.96,232.98 130.79,234.86ZM135.55,209.41C130.05,206.21 125.31,207.05 122.58,211.48C119.84,215.95 121.21,220.59 126.54,224.06C128.95,225.64 131.81,227.4 134.31,228.84C139.81,232.04 144.57,231.16 147.32,226.7C150.04,222.27 148.65,217.66 143.32,214.19C140.91,212.61 138.04,210.85 135.55,209.41ZM141.9,216.79C145.6,219.26 146.67,222.26 144.86,225.19C143.04,228.15 139.86,228.59 135.99,226.4C133.04,224.72 130.07,222.9 127.95,221.46C124.28,218.96 123.27,215.85 125.04,212.99C126.79,210.13 129.98,209.69 133.86,211.85C136.11,213.09 139.07,214.91 141.9,216.79Z" fill="#ffffff" fill-opacity="0.5"/>
  <path d="M698.32,554.23L700.28,546.72L697.74,545.19L696.08,551.52L674.93,538.79L673.43,541.3L697.42,555.73L698.32,554.23ZM673.37,566.67C674.61,570.27 675.96,572.62 678.29,574.02C682.06,576.29 686.63,574.89 689.03,570.91C691.26,567.21 690.86,562.44 686.33,559.72L684.81,562.26C687.72,564.01 687.88,567.23 686.56,569.43C684.93,572.14 682.02,572.86 679.79,571.52C677.67,570.24 677,568.25 675.95,565.33L670.67,550.29L669.03,549.3L660.63,563.25L663.03,564.7L669.16,554.52L673.37,566.67ZM665.16,591.25C670.69,594.39 675.43,593.51 678.11,589.05C680.81,584.56 679.4,579.93 674.03,576.51C671.6,574.96 668.73,573.23 666.22,571.81C660.69,568.67 655.93,569.59 653.23,574.08C650.55,578.53 651.98,583.13 657.35,586.55C659.77,588.1 662.65,589.83 665.16,591.25ZM658.74,583.93C655.02,581.5 653.92,578.51 655.7,575.56C657.49,572.58 660.67,572.11 664.55,574.26C667.53,575.91 670.51,577.71 672.64,579.13C676.34,581.59 677.38,584.69 675.64,587.57C673.91,590.45 670.73,590.91 666.83,588.8C664.57,587.58 661.59,585.78 658.74,583.93Z" fill="#ffffff" fill-opacity="0.5"/>
  <path d="M412.9,173.46V211.73L390.33,173.46H380.1V224.59H388.41V185.39L411.63,224.59H421.21V173.46H412.9Z" fill="#ffffff" fill-opacity="0.9"/>
  <path d="M382.86,623.27C388.54,628.38 395.64,630.44 402.24,630.44C414.95,630.44 420.42,622.41 420.42,615.67C420.42,607.93 416.94,602.75 405.86,599.27C397.98,596.78 393.29,594.72 393.29,590.82C393.29,587.48 396.98,585.57 401.95,585.57C405.43,585.57 410.55,586.77 414.24,589.68L418.92,582.8C414.38,579.03 408.13,577.61 401.74,577.61C391.45,577.61 384.63,583.79 384.63,590.89C384.63,599.55 390.67,603.1 401.24,606.23C409.84,608.78 411.82,611.84 411.82,615.67C411.82,619.65 408.7,622.27 402.24,622.27C397.41,622.27 392.73,620.5 388.11,616.31L382.86,623.27Z" fill="#ffffff" fill-opacity="0.9"/>
  <path d="M229.97,373.96L219.89,412.45L208.46,373.96H199.44L188.57,412.45L178.35,373.96H169.26L183.89,425.08H192.69L204.05,386.74L215.63,425.08H224.22L239.06,373.96H229.97Z" fill="#ffffff" fill-opacity="0.9"/>
  <path d="M619.14,380.77V372.96H584.21V424.08H619.14V416.27H592.59V402.29H617.01V394.48H592.59V380.77H619.14Z" fill="#ffffff" fill-opacity="0.9"/>
  <path d="M402.38,126.08C401.61,124.75 399.69,124.75 398.92,126.08L389.82,141.84C389.05,143.17 390.02,144.84 391.56,144.84L409.74,144.84C411.28,144.84 412.24,143.17 411.47,141.84L402.38,126.08Z" fill="#ff2020"/>
  <path d="M400,287L403.03,391.15C403.12,394.32 405.68,396.88 408.85,396.97L513,400L408.85,403.03C405.68,403.12 403.12,405.68 403.03,408.85L400,513L396.97,408.85C396.88,405.68 394.32,403.12 391.15,403.03L287,400L391.15,396.97C394.32,396.88 396.88,394.32 396.97,391.15L400,287Z" fill="#ffffff" fill-opacity="0.2"/>
</svg>