<svg xmlns="http://www.w3.org/2000/svg" viewBox="0 0 1330 1330" width="24" height="24">
  <g transform="scale(1,-1) translate(0,-1040)">
    <path d="M1011 -191Q1066 -162 1094 -108Q1108 -80 1111.5 -40.5Q1115 -1 1115 93V312Q1115 387 1113.0 419.5Q1111 452 1101 475Q1087 511 1059.5 538.5Q1032 566 996 580Q972 590 939.0 592.0Q906 594 822 594Q810 594 801.5 586.5Q793 579 793 564V541Q793 522 801.5 515.0Q810 508 825 508H855Q908 508 930.5 506.0Q953 504 970 496Q985 489 997.5 476.5Q1010 464 1017 449Q1025 432 1027.0 409.5Q1029 387 1029 333V49Q1029 -5 1027.0 -27.5Q1025 -50 1017 -66Q1003 -96 970 -114Q953 -122 930.5 -124.0Q908 -126 855 -126H475Q422 -126 399.0 -124.0Q376 -122 360 -114Q327 -96 312 -66Q304 -50 302.0 -27.5Q300 -5 300 49V333Q300 387 302.0 409.5Q304 432 312 449Q320 464 332.0 476.5Q344 489 360 496Q376 504 399.0 506.0Q422 508 475 508H504Q521 508 528.5 515.5Q536 523 536 541V564Q536 594 506 594Q424 594 390.5 592.0Q357 590 334 580Q298 566 270.5 538.5Q243 511 228 474Q219 451 217.0 419.0Q215 387 215 312V93Q215 -1 218.0 -40.5Q221 -80 235 -108Q264 -162 318 -191Q346 -205 386.0 -208.0Q426 -211 519 -211H811Q904 -211 943.5 -208.0Q983 -205 1011 -191ZM707 169V814L840 681Q852 669 863.5 668.5Q875 668 889 682L900 693Q914 707 914.0 717.5Q914 728 901 741L695 947Q681 961 665.0 961.5Q649 962 636 949L423 736Q416 730 415.0 719.5Q414 709 424 699L445 678Q456 667 466.5 668.0Q477 669 489 681L622 814V169Q622 154 629.5 147.0Q637 140 652 140H679Q692 140 699.5 147.5Q707 155 707 169Z" fill="currentColor"/>
  </g>
</svg>