<svg xmlns="http://www.w3.org/2000/svg" viewBox="0 0 1330 1330" width="24" height="24">
  <g transform="scale(1,-1) translate(0,-1040)">
    <path d="M689 -135Q699 -133 712.0 -127.0Q725 -121 740 -112L758 -102L1039 56Q1069 73 1082.5 81.5Q1096 90 1105 100Q1123 119 1130 143Q1134 155 1135.0 175.0Q1136 195 1136 222V531Q1136 558 1135.0 577.5Q1134 597 1130 609Q1123 632 1105 653Q1097 662 1083.5 670.5Q1070 679 1051 689L1039 696L758 855Q736 868 718.5 876.5Q701 885 689 887Q665 893 641 887Q629 885 611.5 876.5Q594 868 572 855L291 696Q284 692 276 688Q259 678 245.5 669.5Q232 661 225 653Q207 632 200 609Q196 597 195.0 577.5Q194 558 194 531V222Q194 195 195.0 175.0Q196 155 200 143Q207 119 225 100Q233 91 247.0 82.0Q261 73 280 62L291 56L572 -102L590 -112Q605 -121 618.0 -127.0Q631 -133 641 -135Q665 -140 689 -135ZM280 195V564Q280 578 286.5 588.5Q293 599 308 608L633 791Q652 802 663.5 802.5Q675 803 692 794L1012 614Q1037 600 1044.0 588.0Q1051 576 1051 547V198Q1051 179 1046.0 167.5Q1041 156 1027 148L697 -39Q678 -50 665.5 -50.0Q653 -50 633 -39L311 143Q293 153 286.5 163.5Q280 174 280 195ZM865 376Q865 431 838.0 476.5Q811 522 765.5 549.0Q720 576 665 576Q611 576 565.0 549.0Q519 522 492.0 476.5Q465 431 465 376Q465 322 492.0 276.0Q519 230 565.0 203.0Q611 176 665 176Q720 176 765.5 203.0Q811 230 838.0 276.0Q865 322 865 376ZM553 376Q553 423 586.0 455.5Q619 488 665 488Q712 488 744.5 455.5Q777 423 777 376Q777 330 744.5 297.0Q712 264 665 264Q619 264 586.0 297.0Q553 330 553 376Z" fill="currentColor"/>
  </g>
</svg>