<svg xmlns="http://www.w3.org/2000/svg" viewBox="0 0 1330 1330" width="24" height="24">
  <g transform="scale(1,-1) translate(0,-1040)">
    <path d="M665 441 1020 798Q1030 809 1041.0 809.0Q1052 809 1062 798L1084 776Q1094 766 1094.0 755.5Q1094 745 1084 734L729 377L1085 21Q1096 11 1096.0 0.0Q1096 -11 1085 -21L1063 -43Q1042 -64 1021 -43L665 313L308 -42Q298 -52 287.0 -52.0Q276 -52 266 -42L244 -20Q234 -10 234.0 1.0Q234 12 244 22L601 377L245 734Q235 745 235.0 755.5Q235 766 245 776L267 798Q278 809 288.5 809.0Q299 809 309 798Z" fill="currentColor"/>
  </g>
</svg>