<svg xmlns="http://www.w3.org/2000/svg" viewBox="0 0 1330 1330" width="24" height="24">
  <g transform="scale(1,-1) translate(0,-1040)">
    <path d="M1014 -96Q1069 -68 1097 -13Q1111 15 1114.5 54.5Q1118 94 1118 187V522Q1118 536 1110.5 542.5Q1103 549 1093.5 548.5Q1084 548 1078 542L1051 514Q1040 503 1036.0 490.0Q1032 477 1032 458V144Q1032 90 1030.0 67.5Q1028 45 1020 29Q1005 -3 973 -19Q956 -27 933.5 -29.0Q911 -31 858 -31H472Q419 -31 396.0 -29.0Q373 -27 357 -19Q327 -4 309 29Q301 45 299.0 67.5Q297 90 297 144V546Q297 600 299.0 622.5Q301 645 309 662Q327 695 357 709Q373 717 396.0 719.0Q419 721 472 721H799Q838 721 854 736L884 764Q894 774 894.0 784.0Q894 794 886.0 800.5Q878 807 867 807H516Q423 807 383.0 803.5Q343 800 315 786Q261 758 232 703Q218 675 215.0 635.5Q212 596 212 503V187Q212 94 215.0 54.5Q218 15 232 -13Q261 -68 315 -96Q343 -110 383.0 -113.5Q423 -117 516 -117H814Q907 -117 946.5 -113.5Q986 -110 1014 -96ZM687 279 1155 748Q1168 761 1166.5 781.0Q1165 801 1155 811L1132 834Q1121 845 1100.5 846.0Q1080 847 1065 832L600 366Q566 333 541 290L487 189Q484 183 487.0 176.5Q490 170 496.5 167.0Q503 164 509 167L610 221Q651 244 687 279Z" fill="currentColor"/>
  </g>
</svg>