<svg xmlns="http://www.w3.org/2000/svg" viewBox="0 0 1330 1330" width="24" height="24">
  <g transform="scale(1,-1) translate(0,-1040)">
    <path d="M926 -143Q967 -124 988 -86Q999 -66 1003.5 -37.5Q1008 -9 1012 54L1055 648H1126Q1136 648 1144.0 656.0Q1152 664 1152 676V705Q1152 717 1144.0 725.0Q1136 733 1126 733H947Q923 733 913.0 739.0Q903 745 894 765L872 812L865 826Q857 844 850.0 856.5Q843 869 835 877Q817 895 796 902Q784 906 765.5 907.0Q747 908 721 908H608Q583 908 564.5 907.0Q546 906 534 902Q512 895 494 877Q486 868 477.0 851.5Q468 835 457 812L432 760Q424 742 415.5 737.5Q407 733 381 733H205Q195 733 186.0 725.5Q177 718 177 702V678Q177 663 186.0 655.5Q195 648 205 648H265L306 55Q310 -9 314.5 -37.5Q319 -66 330 -86Q354 -125 392 -143Q412 -153 440.0 -155.0Q468 -157 534 -157H785Q851 -157 878.5 -155.0Q906 -153 926 -143ZM436 -63Q416 -54 405 -34Q400 -25 397.5 -7.0Q395 11 393 36L350 648H970L927 36Q925 11 922.5 -7.0Q920 -25 915 -34Q904 -54 884 -63Q874 -68 860.0 -69.0Q846 -70 813 -70H507Q474 -70 460.0 -69.0Q446 -68 436 -63ZM611 94 595 510Q594 520 586.5 527.5Q579 535 568 535H536Q525 535 517.0 527.0Q509 519 509 508L526 92Q527 81 534.5 73.5Q542 66 553 66H585Q596 66 604.0 74.5Q612 83 611 94ZM794 92 811 508Q811 519 803.0 527.0Q795 535 784 535H752Q741 535 733.5 527.5Q726 520 725 510L709 94Q708 83 716.0 74.5Q724 66 735 66H767Q778 66 785.5 73.5Q793 81 794 92ZM519 742 541 787Q551 809 563.5 815.5Q576 822 602 822H727Q754 822 765.5 815.5Q777 809 787 789L811 742Q813 739 811.5 736.0Q810 733 806 733H524Q519 733 518.0 735.5Q517 738 519 742Z" fill="currentColor"/>
  </g>
</svg>